<?xml version="1.0" standalone="no"?>
<!DOCTYPE svg PUBLIC "-//W3C//DTD SVG 1.1//EN" "http://www.w3.org/Graphics/SVG/1.1/DTD/svg11.dtd" >
<!--
2013-9-30: Created.
-->
<svg>
<metadata>
Created by iconfont
</metadata>
<defs>

<font id="logixon" horiz-adv-x="1024" >
  <font-face
    font-family="logixon"
    font-weight="500"
    font-stretch="normal"
    units-per-em="1024"
    ascent="896"
    descent="-128"
  />
    <missing-glyph />
    
    <glyph glyph-name="x" unicode="x" horiz-adv-x="1001"
d="M281 543q-27 -1 -53 -1h-83q-18 0 -36.5 -6t-32.5 -18.5t-23 -32t-9 -45.5v-76h912v41q0 16 -0.5 30t-0.5 18q0 13 -5 29t-17 29.5t-31.5 22.5t-49.5 9h-133v-97h-438v97zM955 310v-52q0 -23 0.5 -52t0.5 -58t-10.5 -47.5t-26 -30t-33 -16t-31.5 -4.5q-14 -1 -29.5 -0.5
t-29.5 0.5h-32l-45 128h-439l-44 -128h-29h-34q-20 0 -45 1q-25 0 -41 9.5t-25.5 23t-13.5 29.5t-4 30v167h911zM163 247q-12 0 -21 -8.5t-9 -21.5t9 -21.5t21 -8.5q13 0 22 8.5t9 21.5t-9 21.5t-22 8.5zM316 123q-8 -26 -14 -48q-5 -19 -10.5 -37t-7.5 -25t-3 -15t1 -14.5
t9.5 -10.5t21.5 -4h37h67h81h80h64h36q23 0 34 12t2 38q-5 13 -9.5 30.5t-9.5 34.5q-5 19 -11 39h-368zM336 498v228q0 11 2.5 23t10 21.5t20.5 15.5t34 6h188q31 0 51.5 -14.5t20.5 -52.5v-227h-327z" />
    

    
    <glyph glyph-name="cert" unicode="&#58998;" d="M394.48020833 41.21249999999998c-34.284375 0-199.96875 0-199.96875 0-31.021875 0-56.25 26.04375-56.25 58.021875l0 623.503125c0 32.00625 25.228125 58.021875 56.25 58.021875l585.9 0c31.05 0 56.25-26.04375 56.25-58.021875 0 0 0-185.371875 0-212.175s-27.3375-24.328125-27.3375-24.328125-28.9125-1.603125-28.9125 26.1c0 50.23125 0 157.584375 0 181.940625 0 32.090625-36.590625 28.63125-36.590625 28.63125l-518.540625 1.546875c0 0-30.7125 3.234375-30.7125-31.05 0-29.86875 0-458.775 0-568.659375 0-16.228125 8.1-25.565625 21.065625-25.678125 47.08125-0.421875 158.540625-1.378125 180.590625-1.378125 28.125 0 28.51875-27.45 28.51875-27.45S428.76458333 41.21249999999998 394.48020833 41.21249999999998zM275.51145833 615.975c0 15.46875 12.65625 28.125 28.125 28.125l339.525 0c15.46875 0 28.125-12.65625 28.125-28.125l0 0c0-15.46875-12.65625-28.125-28.125-28.125l-339.525 0C288.19583333 587.85 275.51145833 600.50625 275.51145833 615.975L275.51145833 615.975zM275.51145833 479.315625c0 15.46875 12.65625 28.125 28.125 28.125l262.828125 0c15.46875 0 28.125-12.65625 28.125-28.125l0 0c0-15.46875-12.65625-28.125-28.125-28.125l-262.828125 0C288.19583333 451.190625 275.51145833 463.846875 275.51145833 479.315625L275.51145833 479.315625zM275.51145833 342.65625c0 15.46875 12.65625 28.125 28.125 28.125l157.921875 0c15.46875 0 28.125-12.65625 28.125-28.125l0 0c0-15.46875-12.65625-28.125-28.125-28.125l-157.921875 0C288.19583333 314.53125 275.51145833 327.1875 275.51145833 342.65625L275.51145833 342.65625zM275.51145833 205.99687500000005c0 15.46875 12.65625 28.125 28.125 28.125l157.921875 0c15.46875 0 28.125-12.65625 28.125-28.125l0 0c0-15.46875-12.65625-28.125-28.125-28.125l-157.921875 0C288.19583333 177.87187500000005 275.51145833 190.52812500000005 275.51145833 205.99687500000005L275.51145833 205.99687500000005zM926.74583333 70.74374999999998l-85.10625 158.7375c8.803125 19.771875 13.865625 41.56875 13.978125 64.575 0.3375 88.70625-71.325 160.93125-160.115625 161.240625-88.70625 0.39375-161.015625-71.296875-161.26875-160.03125-0.1125-23.56875 5.146875-45.703125 14.11875-65.925l-86.68125-156.7125c-2.784375-4.978125-2.3625-11.25 1.096875-15.834375 3.459375-4.6125 9.28125-6.721875 14.90625-5.45625l73.434375 16.59375 24.8625-70.03125c1.940625-5.428125 6.890625-9.16875 12.571875-9.73125 0.39375 0.028125 0.703125 0 1.153125 0 5.315625-0.05625 10.321875 2.86875 12.909375 7.621875l75.740625 139.865625c5.315625-0.590625 10.490625-1.6875 15.91875-1.74375 5.00625 0 9.73125 0.984375 14.653125 1.51875l76.303125-140.34375c2.5875-4.8375 7.48125-7.70625 12.796875-7.678125 0.365625-0.084375 0.703125-0.028125 1.153125 0.028125 5.709375 0.45 10.659375 4.1625 12.684375 9.50625l25.3125 69.8625 73.265625-17.04375c5.596875-1.40625 11.475 0.759375 14.878125 5.2875C928.93958333 59.52187500000002 929.38958333 65.73749999999995 926.74583333 70.74374999999998zM589.07708333 90.14999999999998l-9.1125 25.7625c-1.265625 3.515625-4.89375 5.56875-8.60625 4.696875l-27.28125-6.103125 38.615625 69.328125c14.175-14.315625 25.7625-20.5875 41.596875-29.30625L589.07708333 90.14999999999998zM694.29270833 192.55312500000002c-56.53125 0.309375-102.43125 46.4625-102.15 103.05 0.16875 56.53125 46.35 102.459375 102.965625 102.178125 56.559375-0.196875 102.375-46.35 102.15-102.909375C797.06145833 238.25625000000002 750.90833333 192.41250000000002 694.29270833 192.55312500000002zM820.12395833 109.38750000000005c-4.303125 1.06875-8.634375-1.434375-10.096875-5.45625l-10.884375-30.43125-41.371875 76.021875c18.73125 10.2375 32.371875 17.71875 49.190625 34.5375l45.3375-81.928125L820.12395833 109.38750000000005z"  horiz-adv-x="1024" />

    
    <glyph glyph-name="delegation" unicode="&#58943;" d="M814.91126656 694.30353375c-114.87539437 117.36106875-489.49756031 117.36106875-604.38063 0C95.65620125 576.90792844 95.65620125 194.15335593999998 210.53063656 76.79132718999995c114.88306969-117.39464625 489.50523563-117.39464625 604.38063 0 7.59229219 7.75058531 14.66077969 16.66582031 21.24767438 26.57973937-29.049105 6.45354469-64.71004688 16.53151125-85.70924906 19.29347906-37.88183625 5.022195-210.22322906-40.45097438-258.23291813-44.10993375-48.0192825-3.65895938-102.11700469 47.07048656-137.36254781 66.19895719-35.23594969 19.12751156-148.34806031 93.74284219-148.34806031 93.74284219s-5.61411375 52.55988469 54.94578656 38.62149469c60.55222594-13.9710075 153.83745844-66.19895719 153.83745844-66.19895719s67.18804687-20.72482875 114.56744343-6.48712219c32.75794969 9.87938156 76.35271312 24.51713719 93.49245188 42.01471406 15.99331687 16.33388531 14.23003219 32.80016156 0.72430875 30.67136438-27.95160844-4.45713844-135.57432094-14.77014563-164.82392906-5.52201563-29.25728344 9.24813-45.63242156 44.50998188-32.96612907 66.16537969 0 0 38.08905563 2.19499219 126.36840188 22.05544688 88.27838719 19.85949562 110.21679281 33.69715312 148.34710031 16.56604781 32.29362469-14.53798313 107.54020781-60.44381906 195.27848156-78.27333094C912.98653156 448.03658344 885.87531219 621.78438188 814.91126656 694.30353375zM617.97023187 471.1569075c0-18.694845-14.83730062-33.83050312-33.13401468-33.83050313L300.29025875 437.32640438c-18.29575594 0-33.13209656 15.13565812-33.13209656 33.83050312l0 3.9928125c0 18.694845 14.83634063 33.86407969 33.13209656 33.86407969l284.5459575 0c18.296715 0 33.13401469-15.16923562 33.13401469-33.86407969L617.97023187 471.1569075zM617.97023187 614.5316990599999c0-18.694845-14.83730062-33.83146219-33.13401468-33.83146218L300.29025875 580.70023687c-18.29575594 0-33.13209656 15.13565812-33.13209656 33.83146219l0 3.99185344c0 18.69580406 14.83634063 33.86503969 33.13209656 33.86503969l284.5459575 0c18.296715 0 33.13401469-15.16923562 33.13401469-33.86503969L617.97023187 614.5316990599999z"  horiz-adv-x="1024" />

    
    <glyph glyph-name="tax" unicode="&#58880;" d="M457.243397 320.19890499999997c7.29822 8.04114 7.529487 21.395286 0.517793 29.797653-1.933025 2.372024-18.406209 30.470989-31.139208 54.54836l26.756387 0c10.180873 0 18.457374 9.486048 18.457374 21.138436 0 11.652388-8.275477 21.138436-18.457374 21.138436l-51.067073 0 0 80.776721c33.124422 3.377934 49.056276 7.798617 50.808176 8.302083 9.848299 2.835581 15.778358 14.331403 13.301957 25.545816-2.369977 11.136641-12.345166 18.212804-22.427802 15.389502-0.331551-0.089028-38.278815-10.774391-124.792191-10.774391-10.231015 0-18.482957-9.525957-18.482957-21.138436 0-11.625782 8.250918-21.112853 18.482957-21.112853 15.675004 0 30.42187 0.38681 46.197158 1.14815l0-78.134545-55.450916 0c-10.18292 0-18.430768-9.486048-18.430768-21.138436 0-11.652388 8.248871-21.138436 18.430768-21.138436l42.818201 0c-13.868869-26.706245-32.764218-65.683978-54.804187-98.575086-6.16235-9.179057-4.6673-22.428825 3.323699-29.490661 7.837502-6.960529 19.927865-5.207605 25.959232 3.76372 14.100136 21.085224 26.680663 40.934295 38.152948 60.578704l0-168.537508c0-11.653411 8.299013-21.139459 18.457374-21.139459 10.209526 0 18.457374 9.487072 18.457374 21.139459L402.31232 362.01119600000004c14.126742-23.561625 28.589129-40.987506 28.691459-41.142026C437.78216 312.697047 450.129372 312.41256799999996 457.243397 320.19890499999997zM724.616934 269.570831c-10.489912 0-18.996656-8.893554-18.996656-19.799952l0-38.999223c0-6.471388-9.924024-14.257725-13.817704-14.257725l-31.966039 0c-3.943822 0-9.150404 1.391696-12.089339 4.486174-2.166339 2.319835-3.170203 5.851265-3.143597 10.748808 0.334621 21.988804 0.281409 81.125669 0.281409 106.336864l0 1.854231 24.361851 0c25.778106 0 46.762023 20.673855 46.762023 46.091758l0 90.237187c0 25.417903-20.983917 46.091758-46.762023 46.091758l-18.791995 0c11.573593 15.660678 28.640294 41.336454 35.728736 64.935941 3.37691 11.045567-2.552126 22.903639-13.198603 26.435069-10.621918 3.429099-22.193465-2.913353-25.443485-13.81668-6.804986-22.606881-29.826306-53.295833-38.07313-63.23316-3.273557-3.90596-4.924149-8.983605-4.744048-14.320147l-36.631292 0c1.159406 0.772596 2.39863 1.302669 3.37691 2.307555 7.993045 8.003278 8.248871 21.36868 0.51677 29.824259-3.687996 4.13825-22.531156 25.869181-33.435507 48.347125-3.480264 7.128351-10.43977 11.613502-18.098193 11.613502-3.195785 0-6.417153-0.837064-9.227152-2.358721-9.898441-5.285377-13.895475-17.96721-8.867972-28.331255 14.513552-29.980825 39.286772-57.31845 40.291658-58.477856 1.160429-1.237177 2.679016-1.985214 4.047176-2.925632l-17.813714 0c-25.802666 0-46.785559-20.674878-46.785559-46.091758l0-90.237187c0-25.417903 20.982894-46.091758 46.785559-46.091758l8.145517 0c-1.211595-32.016181-12.217253-101.360526-82.774215-121.724319-10.722202-3.120061-17.089214-14.745842-14.124695-25.932626 2.369977-9.126868 10.386558-15.544021 19.513426-15.544021 1.857301 0 3.66139 0.25685 5.387707 0.747014 80.662111 23.276123 111.077841 98.627275 112.75504 162.453952l29.129434 0 0-1.804089c0-25.26236 0-84.347037-0.310062-105.820094-0.281409-19.668968 7.476275-32.093952 13.972223-39.002292 13.867846-14.773472 32.093952-16.344247 39.259142-16.344247l31.966039 0c23.431665 0 51.815109 23.975041 51.815109 53.801347l0 38.999223C743.617683 260.676254 735.08331 269.570831 724.616934 269.570831zM528.881994 362.19129799999996c-4.021593 0-6.186909 2.551102-6.186909 3.840468l0 90.237187c0 1.327228 2.165316 3.854794 6.186909 3.854794L669.245835 460.123748c4.022617 0 6.265704-2.526543 6.265704-3.854794l0-90.237187c0-1.289366-2.243087-3.840468-6.265704-3.840468L528.881994 362.19129799999996zM511.998465 811.63659c-235.795331 0-427.63659-191.843306-427.63659-427.63659 0-235.795331 191.842283-427.63659 427.63659-427.63659 235.793284 0 427.63659 191.842283 427.63659 427.63659C939.635055 619.794307 747.791749 811.63659 511.998465 811.63659zM511.998465 11.889027000000056c-205.170846 0-372.08539 166.942173-372.08539 372.110973 0 205.169823 166.914544 372.084367 372.08539 372.084367 205.194382 0 372.110973-166.914544 372.110973-372.084367C884.109438 178.83119999999997 717.192847 11.889027000000056 511.998465 11.889027000000056z"  horiz-adv-x="1024" />

    
    <glyph glyph-name="stock" unicode="&#58904;" d="M506.93238565 802.05435638L118.30137734 616.8483265899999 118.30137734 11.58749320000004 262.14894864 11.58749320000004 262.14894864 502.927964 766.54946533 502.927964 766.54946533 11.58749320000004 904.80822559 11.58749320000004 904.80822559 618.71815833ZM312.8044045 284.34016692l89.67100341 0 0-78.45920507-89.67100341 0 0 78.45920507ZM421.17912617 284.34016692l89.64851836 0 0-78.45920507-89.64851836 0 0 78.45920507ZM312.8044045 187.17724359l89.67100341 0 0-78.4717963-89.67100341 0 0 78.4717963ZM421.156642 187.17724359l89.64941747 0 0-78.4717963-89.64941747 0 0 78.4717963ZM312.8044045 90.03590530999998l89.67100341-1e-8 0-78.43672002-89.67100341 0 0 78.43672002ZM422.41129121 90.03590530999998l89.64761924-1e-8 0-78.43672002-89.64761923 0 0 78.43672002ZM531.99749199 90.03590530999998l89.64941749-1e-8-1e-8-78.43672002-89.64941747 0-1e-8 78.43672002ZM532.01907705 187.19882864l89.64851836 0 0-78.45920508-89.64851836 0 0 78.45920508ZM641.60527783 90.03590530999998l89.66830518-1e-8 0-78.43672002-89.66830518 0 0 78.43672002Z"  horiz-adv-x="1024" />

    
    <glyph glyph-name="ftz-supervision" unicode="&#58882;" d="M485.79003875 575.18313375l179.13825844 0 0-80.04769406-179.13825844 0 0 80.04769406ZM858.11457406 745.29423844c-8.19467812-0.33819281-16.31131125-0.41623781-24.24584062-0.41623782L833.81670406 744.87800062c-208.40496469 0-300.26340094 95.500515-300.96580125 96.306975L511.98699219 864l-20.837895-22.81502345C490.2385775 840.22242656 393.35927562 737.54181375 165.85941125 745.29423844L136.61871969 746.25678844l0-433.04319563c0-113.34670219 37.87762219-278.74911938 365.11842187-405.28535062l10.24985063-3.92824219 10.19782125 3.92824219c327.31884469 126.53623125 365.19646687 291.93864844 365.19646687 405.28535062L887.38128031 746.25678844 858.11457406 745.29423844zM767.79101469 226.55812593999997c-10.0157175-13.89193031-18.10633594-25.83274594-24.24584063-35.82244875l-5.46311812-8.92309408-8.94910875 5.41108876c-51.6915075 31.34789437-93.93962437 72.16519406-125.98991907 121.69746938l0-162.17657625L546.09246125 146.74456594000003l0 165.29835751c-37.01913187-57.12861094-81.73865906-102.34242094-133.2740775-134.6268497l-7.83046969-4.89079219-5.87935593 7.12806938c-7.33618781 8.92309406-16.38935531 18.80873625-26.92537032 29.31873656L370.41417781 210.76711219000003l0-61.55113594L313.88390844 149.21597719 313.88390844 393.91165781c-8.19467812-13.55373657-16.62348938-26.58717657-25.20838969-39.022275l-11.96683125-17.32589062-6.65980125 19.97940468c-4.50056906 13.52772187-9.49542 26.74326562-14.98455375 39.62061657l-2.21126249 5.228985 3.17381155 4.73470312c43.18465125 64.49081344 77.21207531 143.86212188 101.0937075 235.90266094l2.73155907 10.53601407 57.12861093-16.98769688-3.14779687-10.17180657c-13.24155844-42.66435469-27.83588999-83.273535-43.39276969-120.76093406l0-282.31315406 4.13636156 2.26329187c51.11918063 28.14806812 94.09571344 66.88417969 127.94103282 115.34984532L382.40702375 340.94542219000004l0 54.55314092 163.6854375 0 0 45.52598814-60.3024225 0 0-22.19066719-58.50739781 0L427.28264 629.24199187l296.15305406 1e-8 0-206.89610344-58.50739781 0 0 18.73069218-61.78526906 1e-8 0-45.52598813 162.67085812 0 0-54.55314094-125.18345906 0c28.90249875-40.84331437 70.21408031-74.01224906 123.07625625-98.75237156l11.49856406-5.38507406L767.79101469 226.55812593999997z"  horiz-adv-x="1024" />

    
    <glyph glyph-name="dispatch" unicode="&#59057;" d="M512 833.19144844c-248.08150107 0-449.19144844-201.10994737-449.19144844-449.19144844s201.10994737-449.19144844 449.19144844-449.19144844 449.19144844 201.10994737 449.19144844 449.19144844S760.08150107 833.19144844 512 833.19144844zM712.32118261 110.84080224000002L612.15969131 281.55585732l66.77162842 0L678.9313206 486.43604795c0 37.71143174-29.89662979 68.29069922-66.77162841 68.29069922-36.87769687 0-66.77252842-30.57836748-66.77252842-68.29069922L545.38716377 281.55585732c0-75.42016523-59.78876308-136.56880635-133.55045244-136.56880635-73.75899112 0-133.55315068 61.14954023-133.55315068 136.56880635L278.28355977 486.43604795l-66.76983018 0L311.67612002 657.15919776l100.16149043-170.72404893-66.77252842 0L345.06508203 281.55585732c0-37.70873349 29.89752979-68.27900713 66.77252842-68.27900712s66.77252842 30.57027363 66.77252841 68.27900712L478.61013799 486.43604795c0 75.42825997 59.79146133 136.57780019 133.55315068 136.5778002 73.74729903 0 133.54685508-61.14954023 133.54685508-136.5778002L745.71014463 281.55585732l66.77522665 0L712.32118261 110.84080224000002z"  horiz-adv-x="1024" />

    
    <glyph glyph-name="relation" unicode="&#59002;" d="M360.288205 444.160171c0.12689 2.475378 0.192382 4.991688 0.192382 7.478322 0 60.892859-37.9708 113.153106-91.675956 134.775566 26.574239 17.740036 44.110637 47.976688 44.110637 82.231863 0 54.499242-44.38386 98.838076-98.940406 98.838076-54.556547 0-98.94143-44.338834-98.94143-98.838076 0-34.183544 17.46272-64.36596 43.942815-82.121346-53.849442-21.553898-91.948155-73.889871-91.948155-134.88506 0-2.476401 0.064468-4.988618 0.190335-7.467065l1.237177-24.309662L359.040794 419.862789 360.288205 444.160171zM213.975884 716.260359c26.311249 0 47.716768-21.360494 47.716768-47.614437s-21.405519-47.614437-47.716768-47.614437c-26.311249 0-47.717791 21.360494-47.717791 47.614437S187.663612 716.260359 213.975884 716.260359zM120.300388 471.085404c9.112542 42.63196 47.554062 74.735122 93.454462 74.735122 45.9004 0 84.342943-32.103162 93.455485-74.735122L120.300388 471.085404zM368.934119 583.230554l286.525736 0c14.145162 0 25.611308 11.467169 25.611308 25.611308s-11.466146 25.611308-25.611308 25.611308l-286.525736 0c-14.145162 0-25.611308-11.467169-25.611308-25.611308S354.788957 583.230554 368.934119 583.230554zM567.828005 167.38142700000003c26.574239 17.740036 44.110637 47.976688 44.110637 82.231863 0 54.500265-44.38386 98.838076-98.940406 98.838076-54.556547 0-98.94143-44.337811-98.94143-98.838076 0-34.183544 17.46272-64.36596 43.942815-82.121346-53.849442-21.553898-91.948155-73.889871-91.948155-134.88506 0-2.484587 0.064468-4.998851 0.191358-7.474228l1.243317-24.302499 290.575981 0 1.248434 24.296359c0.127913 2.474354 0.192382 4.990664 0.192382 7.480368C659.50396 93.49974299999997 621.534184 145.759991 567.828005 167.38142700000003zM512.999259 297.228751c26.311249 0 47.716768-21.35947 47.716768-47.614437s-21.405519-47.614437-47.716768-47.614437c-26.311249 0-47.717791 21.35947-47.717791 47.614437S486.68801 297.228751 512.999259 297.228751zM419.324786 52.053796000000034c9.112542 42.63196 47.554062 74.735122 93.454462 74.735122 45.9004 0 84.342943-32.103162 93.454462-74.735122L419.324786 52.053796000000034zM865.392144 586.414059c26.574239 17.740036 44.110637 47.976688 44.110637 82.231863 0 54.499242-44.38386 98.838076-98.940406 98.838076s-98.94143-44.338834-98.94143-98.838076c0-34.183544 17.46272-64.36596 43.942815-82.121346-53.849442-21.553898-91.948155-73.889871-91.948155-134.88506 0-2.478448 0.064468-4.989641 0.190335-7.467065l1.237177-24.309662 290.583145 0 1.248434 24.297382c0.127913 2.473331 0.192382 4.989641 0.192382 7.479345C957.0681 512.531352 919.0973 564.792623 865.392144 586.414059zM810.563398 716.260359c26.311249 0 47.716768-21.360494 47.716768-47.614437s-21.405519-47.614437-47.716768-47.614437-47.717791 21.360494-47.717791 47.614437S784.252149 716.260359 810.563398 716.260359zM716.888925 471.085404c9.111518 42.63196 47.554062 74.735122 93.453439 74.735122 45.9004 0 84.342943-32.103162 93.454462-74.735122L716.888925 471.085404zM394.506541 155.499819c6.554276 0 13.109576 2.499937 18.110473 7.500834 10.001795 10.001795 10.001795 26.219151 0 36.220946l-202.604394 202.603371c-10.001795 10.001795-26.218128 10.001795-36.220946 0s-10.001795-26.219151 0-36.220946l202.604394-202.603371C381.397988 157.99975600000005 387.952264 155.499819 394.506541 155.499819zM817.452295 401.824971L614.846878 199.222623c-10.000771-10.001795-10.000771-26.219151 0-36.220946 5.001921-5.001921 11.555174-7.500834 18.110473-7.500834 6.553253 0 13.110599 2.50096 18.10945 7.500834l202.605418 202.603371c10.000771 10.001795 10.000771 26.219151 0 36.220946C843.670423 411.826765 827.452044 411.827789 817.452295 401.824971z"  horiz-adv-x="1024" />

    
    <glyph glyph-name="certification" unicode="&#58893;" d="M852.17363281 781.00634766l-70.2290039 0-29.24472657 0L170.06855469 781.00634766c-18.94833984 0-37.89492188-19.82636719-37.89492188-38.77382813l0-715.74433594c0-18.94746094 18.94746094-37.89404297 37.89492188-37.89404297l682.10507812 0c18.94746094 0 37.89404297 18.94746094 37.89404297 37.89404297L890.06767578 743.11142578C890.06767578 762.05888672 871.12109375 781.00634766 852.17363281 781.00634766zM852.17363281 713.33056641l0-686.84238282L170.06855469 26.48818358999995 170.06855469 743.11142578l582.63046875 0 29.24472656 0 70.22900391 0L852.17275391 713.33056641zM745.72314453 311.28808594L279.05117188 311.28808594c-9.47373047 0-18.94746094-9.47373047-18.94746094-18.94833985 0-9.47285156 9.47285156-18.94746094 18.94746094-18.94746093l466.67197265 0c9.47373047 0 18.94658203 9.47373047 18.94658203 18.94746093C764.66972656 301.81347656 755.196875 311.28808594 745.72314453 311.28808594zM392.6375 468.73974609c-64.11005859 0-116.25732422 52.62363281-116.25732422 117.32607422 0 64.69189453 52.1578125 117.32607422 116.25732422 117.32607422 64.12148437 0 116.26875-52.63417969 116.26875-117.32607422C508.90625 521.37392578 456.72734375 468.73974609 392.6375 468.73974609L392.6375 468.73974609zM392.6375 664.77363281c-42.70166016 0-77.45888672-35.30742188-77.45888672-78.70693359 0-43.39951172 34.75722656-78.7078125 77.45888672-78.7078125 42.71220703 0 77.45976563 35.30742188 77.45976563 78.7078125C470.09638672 629.46533203 435.34882812 664.77363281 392.6375 664.77363281L392.6375 664.77363281zM547.69501953 413.28076172c-6.58125 0-12.9796875 3.32226563-16.62890625 9.31904297l-63.50800781 104.71816406c-5.52128906 9.12832031-2.58046875 20.98652344 6.60058594 26.5078125 9.13886719 5.54238281 21.09199219 2.59189453 26.64492187-6.53730469l63.50800781-104.71728515c5.52041016-9.13886719 2.58046875-21.00673828-6.60234375-26.5078125C554.55751953 414.16933594 551.09902344 413.28076172 547.69501953 413.28076172L547.69501953 413.28076172zM547.69501953 413.28076172c-1.58818359 0-3.21679688 0.19160156-4.83574219 0.59238281l-63.5071289 16.16220703c-10.37636719 2.64462891-16.62802734 13.16953125-13.99394532 23.50371094 2.65517578 10.30253906 13.25390625 16.59638672 23.60830079 13.92011719l63.5071289-16.16308594c10.37900391-2.64462891 16.62890625-13.16865234 13.99394532-23.49228516C564.22724609 419.06748047 556.32412109 413.28076172 547.69501953 413.28076172L547.69501953 413.28076172zM467.28300781 375.57216797c-1.92480469 0-3.83994141 0.28476563-5.78583984 0.86748047-10.22871094 3.18427734-15.92929688 14.01503906-12.74677734 24.19101562l16.8618164 53.86113282c3.20449219 10.15400391 14.02558594 15.77109375 24.30703125 12.68261718 10.22871094-3.18339844 15.93017578-14.01503906 12.75644531-24.19013672l-16.87148437-53.87167968C483.21230469 380.86142578 475.56582031 375.57216797 467.28300781 375.57216797L467.28300781 375.57216797zM467.30410156 375.57216797c-6.74824219 0-13.28466797 3.49189453-16.86005859 9.7321289l-51.71396485 90.09931641c-5.29892578 9.26542969-2.07333984 21.05947266 7.23427735 26.33730469 9.29794922 5.33144531 21.13417969 2.08476562 26.46474609-7.18154297l51.69199219-90.11074219c5.31035156-9.26542969 2.07333984-21.06035156-7.22460937-26.3258789C473.88359375 376.38779296999996 470.56220703 375.57216797 467.30410156 375.57216797L467.30410156 375.57216797zM237.528125 413.28076172c-3.41630859 0-6.86513672 0.88857422-10.01689453 2.78261719-9.18105469 5.50107422-12.121875 17.37861328-6.59970703 26.5078125l63.5071289 104.71728515c5.54326172 9.12832031 17.42080078 12.06914062 26.64404297 6.56894532 9.18105469-5.52128906 12.121875-17.37861328 6.60058594-26.5078125l-63.50712891-104.71728516C250.52802734 416.60390625 244.10761719 413.28076172 237.528125 413.28076172L237.528125 413.28076172zM237.55009766 413.28076172c-8.65283203 0-16.55332031 5.78583984-18.77519532 14.5133789-2.65517578 10.33417969 3.60703125 20.84765625 13.99394532 23.49228516l63.49658203 16.16220703c10.41855469 2.64375 20.95400391-3.61757813 23.59863281-13.92011719 2.65517578-10.33417969-3.60703125-20.84853516-13.99394531-23.50283203l-63.50712891-16.16220703C240.75546875 413.45039063 239.12597656 413.28076172 237.55009766 413.28076172L237.55009766 413.28076172zM317.91728516 375.57216797c-8.26083984 0-15.93017578 5.28925781-18.51064453 13.55009765l-16.8600586 53.87167969c-3.20537109 10.16455078 2.5171875 20.99707031 12.74501953 24.19101563 10.20761719 3.08847656 21.11308594-2.50664063 24.29648438-12.68261719l16.8609375-53.86025391c3.20449219-10.17685547-2.5171875-21.00673828-12.74501953-24.19101562C321.77919922 375.84726563000004 319.84296875 375.57216797 317.91728516 375.57216797L317.91728516 375.57216797zM317.89707031 375.57216797c-3.25810547 0-6.55839844 0.80507812-9.6046875 2.55058594-9.31904297 5.26552734-12.53408203 17.08154297-7.23427734 26.3258789l51.70341797 90.09931641c5.32089844 9.24521484 17.20986328 12.47080078 26.46474609 7.18242187 9.30849609-5.27783203 12.53408203-17.08330078 7.23427735-26.33818359l-51.71308594-90.0984375C331.20371094 379.05175781 324.65585937 375.57216797 317.89707031 375.57216797L317.89707031 375.57216797zM749.23876953 201.44150391000005L282.56679688 201.44150391000005c-9.47373047 0-18.94746094-9.47373047-18.94746094-18.94833985s9.47285156-18.94833984 18.94746094-18.94833984l466.67197265 0c9.47373047 0 18.94658203 9.47373047 18.94658203 18.94833984S758.7125 201.44150391000005 749.23876953 201.44150391000005z"  horiz-adv-x="1024" />

    
    <glyph glyph-name="bonded" unicode="&#58881;" d="M516.396 816.248C280.283 815.641 88.684 623.0360000000001 89.303 386.922c0.607-236.101 193.213-427.714 429.326-427.095 236.113 0.596 427.7 193.213 427.107 429.326C945.117 625.269 752.523 816.8679999999999 516.396 816.248zM518.488 15.42999999999995c-205.448-0.542-373.027 166.161-373.558 371.634-0.542 205.447 166.175 373.027 371.623 373.555 205.461 0.542 373.038-166.158 373.557-371.605C890.649 183.553 723.949 15.972999999999956 518.488 15.42999999999995zM382.568 608.491c-9.694 0-22.341-4.312-27.516-25.144-9.591-59.99-32.062-111.023-67.103-152.156-6.995-11.19-6.313-22.471 2.348-33.956 10.054-10.042 21.35-9.242 30.988 1.806 4.325 4.336 8.275 9.11 11.786 14.273l0.012-220.366c1.755-17.63 12.739-22.509 21.645-23.518l0.401-0.051 0.398 0.051c14.237 1.422 21.748 9.682 21.748 23.878L377.275 490.538c13.257 30.342 21.863 59.356 25.53 86.137C406.278 599.326 394.094 606.438 382.568 608.491zM740.7 244.31500000000005c-68.817 32.085-118.534 68.999-147.909 109.761l131.672 0c11.9 0 18.459 7.175 18.408 20.728-1.475 11.576-8.674 17.939-20.238 17.939L578.362 392.743l0 41.765 91.249 0c26.406 0 40.372 13.322 40.372 38.54L709.983 558.98c0 26.406-13.966 40.357-40.372 40.357L450.43 599.337c-26.392 1.227-40.591-12.686-40.591-40.357l0.026-84.293c1.278-24.976 13.887-38.864 36.693-40.18l89.432 0 0-41.765L404.522 392.742l-1.047-0.142c-6.968-1.988-15.656-7.667-17.358-23.143-0.696-4.31 0.079-7.847 2.36-10.531 2.764-3.252 7.435-4.851 14.199-4.851l122.458 0c-26.059-35.212-72.122-70.911-137.365-106.403-6.208-4.131-12.146-12.443-4.582-29.221 8.467-11.255 18.948-13.887 28.498-8.417 56.917 27.879 98.66 59.837 124.305 95.176l0.023-117.785c1.396-12.804 9.23-19.854 22.072-19.854l0.219 0 0.195 0.028c12.982 1.446 19.862 9.087 19.862 22.067L578.361 307.09400000000005c33.892-39.544 81.181-74.6 140.708-104.387 3.534-1.758 6.968-2.635 10.222-2.635 7.384 0 13.68 4.493 18.688 13.474C757.377 232.44299999999998 747.515 240.90999999999997 740.7 244.31500000000005zM470.333 476.841c-12.547 0-18.123 5.602-18.123 18.148l-0.012 47.871c-0.502 5.302 0.295 9.125 2.322 11.343 1.758 1.95 4.779 2.93 8.971 2.93 0.891 0 1.847-0.039 3.174-0.142l183.147 0.012c0.851 0.079 1.676 0.105 2.478 0.105 7.151 0 15.306-2.286 15.306-20.083l0-43.883c0-11.254-5.007-16.302-16.261-16.302L470.333 476.84z"  horiz-adv-x="1024" />

    
    <glyph glyph-name="received" unicode="&#58900;" d="M690.0143956 75.58449592C690.0143956 73.01460892 687.96335883 70.92284142999995 685.37983835 70.92284142999995L598.74316648 70.92284142999995C596.19909131 70.92284142999995 594.12832858 73.01460892 594.12832858 75.58449592 594.12832858 78.19422454999994 596.19909131 80.28599285999996 598.74316648 80.28599285999996L685.37983835 80.28599285999996C687.96335883 80.28599285999996 690.0143956 78.19422454999994 690.0143956 75.58449592L690.0143956 75.58449592ZM690.0143956 18.927462070000047C690.0143956 16.35757590000003 687.96335883 14.265807590000009 685.37983835 14.265807590000009L639.34979209 14.265807590000009C636.78599509 14.265807590000009 634.71523236 16.35757590000003 634.71523236 18.927462070000047 634.71523236 21.537190710000004 636.78599509 23.648881899999992 639.34979209 23.648881899999992L685.37983835 23.648881899999992C687.96335883 23.648881899999992 690.0143956 21.537190710000004 690.0143956 18.927462070000047L690.0143956 18.927462070000047ZM690.0143956 37.83305932999997C690.0143956 35.24325356999998 687.96335883 33.13156236999998 685.37983835 33.13156236999998L639.34979209 33.13156236999998C636.78599509 33.13156236999998 634.71523236 35.24325356999998 634.71523236 37.83305932999997 634.71523236 40.402946319999955 636.78599509 42.514636689999975 639.34979209 42.514636689999975L685.37983835 42.514636689999975C687.96335883 42.514636689999975 690.0143956 40.402946319999955 690.0143956 37.83305932999997L690.0143956 37.83305932999997ZM690.0143956 56.71873700000003C690.0143956 54.148850830000015 687.96335883 52.03716293000002 685.37983835 52.03716293000002L620.96932785 52.03716293000002C618.38580737 52.03716293000002 616.33477061 54.148850830000015 616.33477061 56.71873700000003 616.33477061 59.32846893999999 618.38580737 61.38039147999996 620.96932785 61.38039147999996L685.37983835 61.38039147999996C687.96335883 61.38039147999996 690.0143956 59.32846893999999 690.0143956 56.71873700000003L690.0143956 56.71873700000003ZM706.00855686 15.700162810000052C706.00855686 9.086188669999956 700.72318655 3.7671219200000223 694.19536142 3.7671219200000223L588.09354267 3.7671219200000223C581.56571753 3.7671219200000223 576.28034724 9.086188669999956 576.28034724 15.700162810000052L576.28034724 83.25430947999996C576.28034724 89.86828362000006 581.56571753 95.18735119999997 588.09354267 95.18735119999997L694.19536142 95.18735119999997C700.72318655 95.18735119999997 706.00855686 89.86828362000006 706.00855686 83.25430947999996L706.00855686 15.700162810000052ZM466.35255399-25.41802167000003L533.05075995-25.41802167000003 533.05075995 372.47611523 466.35255399 372.47611523 466.35255399-25.41802167000003ZM886.51969687 559.77900851L702.79394517 384.90719439 702.36007392 384.90719439 533.05075995 384.90719439 466.35255399 384.90719439 333.42945615 384.90719439 307.53509082 384.90719439 123.84878195 559.77900851 107.71657282 542.22807825 272.98297378 384.90719439 270.77416317 384.90719439 270.77416317-5.376893470000027C270.77416317-23.28641171000004 285.13143542-37.869023709999965 302.62442956-37.869023709999965L466.35255399-37.869023709999965 533.05075995-37.869023709999965 705.55495965-37.869023709999965C723.04795627-37.869023709999965 737.36578485-23.28641171000004 737.36578485-5.376893470000027L737.36578485 384.90719439 902.65190848 542.22807825 886.51969687 559.77900851ZM716.54307388 798.59787378C700.27836221 810.64458279 675.84717227 807.33994117 663.49509085 791.49640823L481.01184589 558.3902388700001 421.00302012 627.62366226C407.92300739 642.69376731 383.05960815 644.80311347 367.68206253 632.0767259300001 359.65207153 625.42056674 354.78403201 616.0925701900001 353.94236173 605.70990097 353.07794314 595.42097947 356.35363361 585.46017947 363.10974502 577.6321619600001L453.55519257 473.26640908C460.85725227 464.89933667 471.41225412 460.11815231 482.51320425 460.11815231 482.62694323 460.11815231 483.33212708 460.11815231 483.44586606 460.14158945 494.95627802 460.39939875 505.60227057 465.71963799 512.65410401 474.78982608L723.79963864 744.48142969C730.14628824 752.6375679 732.92152701 762.71555438 731.60215167 772.93416367 730.23727893 783.29339658 724.89153519 792.36358384 716.54307388 798.59787378"  horiz-adv-x="1024" />

    
    <glyph glyph-name="supplier" unicode="&#59194;" d="M290.89124404 471.37843974c27.43013848 39.20787949 86.01208506 137.13195938 106.78489981 195.66238888l45.51317314 0c-14.04290127-46.02833789-42.62201104-100.14943184-55.949146-124.77817179l0-323.5908665-40.35763125 0L346.88253974 476.14370683c-15.247292-25.21649443-37.96368047-58.48906026-55.81176943-78.11602646C291.06686797 398.02768037 290.89124404 442.72127432 290.89124404 471.37843974L290.89124404 471.37843974zM581.56157305 334.26833612999997c-30.49614492-35.29653574-66.97677656-75.68382832-113.96519297-116.01179824-2.56957558 1.26605479-31.96748408 29.57509424-34.49412862 30.80602354 44.45786778 34.0008205 80.27737295 71.46728965 112.06142755 110.53388847L581.56157305 334.26833612999997 581.56157305 334.26833612999997zM459.08134472 554.1262581999999l56.66569278 0L515.7470375 639.34530263l41.17721045 0 0-85.2198249 86.44919326 0L643.37344121 639.34530263l41.22404385 0 0-85.2198249 56.19345908 0 0-40.4996915-56.19345908 0 0-88.35764151 88.49189619 0 0-40.06960751L427.01082822 385.19853633l1e-8 40.06960752 88.73620927 0L515.7470375 513.6265667l-56.66569277 0L459.08134472 554.1262581999999 459.08134472 554.1262581999999 459.08134472 554.1262581999999zM556.92424707 515.1884499l0-88.3576415 86.44919326-1e-8L643.37344121 515.1884499 556.92424707 515.1884499 556.92424707 515.1884499zM615.01756836 334.11300615000005l33.34905967 28.67355703c25.40148487-21.43316162 89.33645302-84.80691299 119.30962851-112.76002089l-32.49591768-31.77078487C704.68419482 249.73929902999998 662.01066758 291.27634423999996 615.01756836 334.11300615000005L615.01756836 334.11300615000005zM615.01756836 334.11300615000005M914.39885146 435.63542842C914.39885146 655.64399766 736.26686738 834 516.52368565 834 296.78050479 834 118.64383701 655.64399766 118.64383701 435.63542842c0-115.2140748 48.85471406-219.0047792 126.94888477-291.74202598l-60.68397129-105.10437304 120.62641816 0.23182383L364.57295732-64.93766953l64.57814209 111.85067901c28.11624346-6.30919687 57.35648057-9.64215175 87.37258624-9.64215177 30.17455752 0 59.56466045 3.36807949 87.8175 9.74050137l64.63434198-111.94980908 59.03778779 103.95852364 120.62641817-0.23182383-60.85959521 105.41269071C865.68619766 216.92257529000005 914.39885146 320.58058594 914.39885146 435.63542842L914.39885146 435.63542842zM364.82039229 4.642246279999995l-29.21760088 51.45473145-9.95905547 17.5421127-20.17647422-0.03824736-60.60357422-0.11942403 27.48946026 47.61051504c36.27066445-28.26610927 77.5540292-50.38147266 122.2999207-64.78030546L364.82039229 4.642246279999995 364.82039229 4.642246279999995zM516.52368565 71.84616386000005c-200.32618359 0-363.30454248 163.19769346-363.30454248 363.78926456 0 200.59625479 162.97913935 363.78926455 363.30454248 363.78926455 200.32462266 0 363.29907832-163.19301065 363.29907831-363.78926455C879.82354531 235.04073545000006 716.8483083 71.84616386000005 516.52368565 71.84616386000005L516.52368565 71.84616386000005zM788.68479834 73.48141903999999l-60.60201328 0.11942403-20.17335147 0.03824736-9.95905547-17.5421127-29.22228456-51.45473144-29.90838955 51.80129561c44.72325527 14.45034903 85.98164326 36.60864258 122.22186591 64.91768203L788.68479834 73.48141903999999 788.68479834 73.48141903999999zM788.68479834 73.48141903999999"  horiz-adv-x="1024" />

    
    <glyph glyph-name="receivable" unicode="&#59120;" d="M662.16278076-37.877471929999956L361.84133911-37.877471929999956C212.00320435-37.877471929999956 90.125 83.99743652999996 90.125 233.83721923999997L90.125 534.15866089C90.125 683.99597168 212.00320435 805.875 361.84133911 805.875l300.32144165 0c149.83978271 0 271.71469117-121.87902832 271.71469117-271.71633911l0-300.32144165C933.87747193 83.99743652999996 812.00256347-37.877471929999956 662.16278076-37.877471929999956zM361.84133911 762.95993042c-126.15463257 0-228.80209351-102.64663696-228.80209351-228.80374146l0-300.31896972c0-126.1505127 102.64663696-228.81033325 228.80209351-228.81033325l300.32144165 0c126.1505127 0 228.80209351 102.65075684 228.80209351 228.81033325L890.96487427 534.15866089c0 126.15463257-102.65075684 228.80209351-228.80209351 228.80209351L361.84133911 762.9607544 361.84133911 762.95993042zM495.98110962 285.22027588000003l-54.36584473 0 0 29.20166016 54.36584473 0 0 15.72555542-54.36584473 0 0 29.20166015 38.30493164 0-45.7182312 84.23739624 44.48226929 0 29.65319824-56.1579895c3.70788575-6.73846435 6.17816162-13.47857666 7.41412355-19.09396363 1.23596192 5.61538697 4.94384766 12.35549927 7.41577147 19.09396363l29.65072632 56.1579895 44.48226929 0-45.71411133-84.23739624 38.30245972 0 0-29.20166015-55.60180665 0 0-15.72555542 55.60180665 0 0-29.20166016-55.60180665 0 0-35.94177246-40.77438354 0 0 35.94177246L495.98110962 285.22027588000003zM171.02282714 395.29174805l327.4302063-345.93832398c8.64926148-8.98544311 24.71347046-8.98544311 33.36108399 0l327.43185425 345.93832398c12.35549927 12.35549927 1.23596192 31.44863891-17.29934692 31.4486389l-138.38653565 0L703.56008911 650.25256347c0 29.20413207-27.18292237 52.79040527-60.54153442 52.79040528L387.24859619 703.04296875c-33.36108398 0-60.54153443-23.58627321-60.54153442-52.79040527l0-223.51217651L188.32217407 426.74038697C169.78686523 426.74038697 159.90328979 407.64724732 171.02282714 395.29174805zM279.75534058 386.30630493l100.07995605 0L379.83529663 614.31243897c0 21.33847046 19.76962281 38.18710329 43.24630738 38.18710327l185.33743286 0c24.71511841 0 43.24630737-16.84863281 43.24630738-38.18710327l0-228.00695801 100.08407591 0c13.59146118 0 21.00311279-13.47610474 12.35549927-22.46566773L528.10540771 114.49273682c-6.17568969-6.73599243-18.53366089-6.73599243-24.71099853 0L267.39984131 363.84063720999995C258.74975586 372.83020020000004 266.1638794 386.30630493 279.75534058 386.30630493z"  horiz-adv-x="1024" />

    
    <glyph glyph-name="payable" unicode="&#59134;" d="M662.16278076-37.877471929999956L361.84133911-37.877471929999956C212.00320435-37.877471929999956 90.125 83.99743652999996 90.125 233.83721923999997L90.125 534.15866089C90.125 683.99597168 212.00320435 805.875 361.84133911 805.875l300.32144165 0c149.83978271 0 271.71469117-121.87902832 271.71469117-271.71633911l0-300.32144165C933.87747193 83.99743652999996 812.00256347-37.877471929999956 662.16278076-37.877471929999956zM361.84133911 762.95993042c-126.15463257 0-228.80209351-102.64663696-228.80209351-228.80374146l0-300.31896972c0-126.1505127 102.64663696-228.81033325 228.80209351-228.81033325l300.32144165 0c126.1505127 0 228.80209351 102.65075684 228.80209351 228.81033325L890.96487427 534.15866089c0 126.15463257-102.65075684 228.80209351-228.80209351 228.80209351L361.84133911 762.9607544 361.84133911 762.95993042zM489.65710449 309.21853638000005l-51.02050782 0 0 29.62188721 51.02050782 0 0 15.93154907-51.02050782 0 0 29.61611938 35.97720338 0-42.95626831 85.40084838 41.77798462 0 27.81985473-56.93087768c3.44256592-6.85134887 5.7991333-13.70269776 6.97329712-19.39883422 1.18652345 5.6953125 4.62661743 12.54748535 6.98318482 19.39883422l27.81738281 56.93087768 41.78375244 0-42.95791625-85.40084838 35.97473144 0 0-29.61611938-52.19879151 0 0-15.93154907 52.19879151 0 0-29.62188721-52.19879151 0 0-36.47323609-38.24066162 0 0 36.47323609L489.65710449 309.21853638000005 489.65710449 309.21853638000005zM184.52777099 375.31365967c-10.42163086-12.54501343-1.17828369-31.84661865 16.22241211-31.84661865l129.95315552 0 0-226.57736207c0-29.62188721 25.55557251-53.55834961 56.81964112-53.5583496l240.14822388 0c31.35635376 0 56.82540893 23.9364624 56.82540893 53.5583496L684.49661255 343.38464354999996l129.95315552 0c17.39822388 0 27.81738281 19.38400268 16.21994018 31.84249879L523.27279663 725.99230957c-8.15734864 9.07608032-23.19488526 9.07608032-31.35635376 0L184.52777099 375.31365967 184.52777099 375.31365967zM286.65777588 384.38809204c-12.77572633 0-19.75314331 13.7010498-11.59744263 22.7746582l221.57171631 252.82095338c5.80242919 6.85134887 17.4006958 6.85134887 23.20147705 0l221.57171631-252.82095338c8.15322876-9.07360839 1.17828369-22.7746582-11.59332276-22.7746582l-93.98254394 0 0-231.11087037c0-21.62109375-17.39410401-38.7020874-40.59310913-38.70208739L421.23590089 114.57513427000004c-22.02319337 0-40.60134889 17.08099365-40.60134889 38.7020874L380.634552 384.38809204 286.65777588 384.38809204 286.65777588 384.38809204z"  horiz-adv-x="1024" />

    
    <glyph glyph-name="customer-mng" unicode="&#58985;" d="M415.41636268 718.59051764C320.90571526 718.59051764 244.66311231 639.93646235 244.66311231 543.3567932799999 244.66311231 446.77712422 320.90571526 368.12305408 415.41636268 368.12305408 509.92701089 368.12305408 586.16961222 446.77712422 586.16961222 543.3567932799999 586.16961222 639.93646235 509.92701089 718.59051764 415.41636268 718.59051764ZM415.41636268 426.31270954C353.45543723 426.31270954 302.85276694 478.5158854 302.85276694 543.3567932799999 302.85276694 608.19768549 353.45543723 660.40086218 415.41636268 660.40086218 477.37728729 660.40086218 527.97995758 608.19768549 527.97995758 543.3567932799999 527.97995758 478.5158854 477.37728729 426.31270954 415.41636268 426.31270954ZM90.20845049 83.63694351000004C88.94000173 66.75692468 102.29386325 52.36193829000001 119.22147897 52.36193829000001L711.61124719 52.36193829000001C728.53945865 52.36193829000001 741.89352944 66.75789943999996 740.62416114 83.63845633000005 729.54635068 230.95562099999995 630.38059198 346.60057773000005 507.83142099 346.60057773000005L323.00196271 346.60057773000005C200.39060883 346.60057773000005 101.2803168 230.97701961999996 90.20845049 83.63694351000004ZM507.83142099 288.41092227C596.68399131 288.41092227 673.61857557 198.69147876 682.59833161 79.27507571000001L711.61124719 110.55159375000005 119.22147897 110.55159375000005 148.23450662 79.27658853000003C157.20988736 198.71744632000002 234.09341733 288.41092227 323.00196271 288.41092227L507.83142099 288.41092227ZM904.78182352 587.23556048C920.85045313 587.23556048 933.87665125 600.26175202 933.87665125 616.33038821 933.87665125 632.3990104 920.85045313 645.42521594 904.78182352 645.42521594L692.29418914 645.42521594C676.22555954 645.42521594 663.19936142 632.3990104 663.19936142 616.33038821 663.19936142 600.26175202 676.22555954 587.23556048 692.29418914 587.23556048L904.78182352 587.23556048ZM904.78182352 427.21400922C920.85045313 427.21400922 933.87665125 440.24019992 933.87665125 456.30883694 933.87665125 472.37745913 920.85045313 485.40366467 904.78182352 485.40366467L679.41615072 485.40366467C663.34752112 485.40366467 650.321323 472.37745913 650.321323 456.30883694 650.321323 440.24019992 663.34752112 427.21400922 679.41615072 427.21400922L904.78182352 427.21400922ZM904.78182352 267.19245712C920.85045313 267.19245712 933.87665125 280.21864783 933.87665125 296.28728484 933.87665125 312.35590704000003 920.85045313 325.38211258 904.78182352 325.38211258L730.92830442 325.38211258C714.85967481 325.38211258 701.83347669 312.35590704000003 701.83347669 296.28728484 701.83347669 280.21864783 714.85967481 267.19245712 730.92830442 267.19245712L904.78182352 267.19245712Z"  horiz-adv-x="1024" />

    
    <glyph glyph-name="rmb" unicode="&#59083;" d="M787.669861 833.250164h-65.742653l-210.480106-375.237589L298.62537 833.250164h-65.917737L454.915321 441.463516H224.561601v-49.146496h253.973731v-149.487257H224.561601v-49.146496h253.973731v-257.529684h66.552546V193.683267h257.045387v49.146496H545.087878v149.487257h257.045387v49.146496H567.906187z"  horiz-adv-x="1024" />

    
    <glyph glyph-name="truck-o" unicode="&#59522;" d="M957.6 323.20000000000005l-120.8 181.6c-3.2 4.8-8 7.2-13.6 7.2H704V672c0 17.6-14.4 32-32 32H96c-17.6 0-32-14.4-32-32v-448c0-17.6 14.4-32 32-32h32c0-70.4 57.6-128 128-128s128 57.6 128 128h256c0-70.4 57.6-128 128-128s128 57.6 128 128h32c17.6 0 32 14.4 32 32V314.4c0 3.2-0.8 6.4-2.4 8.8zM256 128c-35.2 0-64 28.8-64 64s28.8 64 64 64 64-28.8 64-64-28.8-64-64-64z m384 128H366.4c-22.4 38.4-63.2 64-110.4 64s-88.8-25.6-110.4-64H128V640h512v-384z m128-128c-35.2 0-64 28.8-64 64s28.8 64 64 64 64-28.8 64-64-28.8-64-64-64z m128 128h-17.6c-22.4 38.4-63.2 64-110.4 64-23.2 0-44.8-6.4-64-17.6V448h95.2c5.6 0 10.4-2.4 12.8-7.2l80.8-116.8c1.6-2.4 3.2-5.6 3.2-8.8V256z"  horiz-adv-x="1024" />

    
    <glyph glyph-name="truck" unicode="&#59523;" d="M823.2 512H704V672c0 17.6-14.4 32-32 32H96c-17.6 0-32-14.4-32-32v-448c0-17.6 14.4-32 32-32h32c0-70.4 57.6-128 128-128s128 57.6 128 128h256c0-70.4 57.6-128 128-128s128 57.6 128 128h32c17.6 0 32 14.4 32 32V314.4c0 3.2-0.8 6.4-2.4 8.8l-120.8 181.6c-3.2 4.8-8 7.2-13.6 7.2zM268.8 129.60000000000002c-44.8-8.8-84 30.4-75.2 75.2 4.8 24.8 24.8 45.6 50.4 50.4 44.8 8.8 84-30.4 75.2-75.2-5.6-25.6-25.6-45.6-50.4-50.4z m512 0c-44.8-8.8-84 30.4-75.2 75.2 4.8 24.8 24.8 45.6 50.4 50.4 44.8 8.8 84-30.4 75.2-75.2-5.6-25.6-25.6-45.6-50.4-50.4zM704 320V448h95.2c5.6 0 10.4-2.4 12.8-7.2L896 320H704z"  horiz-adv-x="1024" />

    
    <glyph glyph-name="packing" unicode="&#59524;" d="M128 32c0-17.6 14.4-32 32-32h704c17.6 0 32 14.4 32 32V576H128v-544z m447.2 288H768v-64H575.2v64z m-64-128H768v-64H511.2v64z m-16 416h-368l76.8 135.2c12 16 30.4 24.8 50.4 24.8h240.8v-160z m401.6 0h-368V768h240.8c20 0 38.4-9.6 50.4-24.8l76.8-135.2z"  horiz-adv-x="1024" />

    
    <glyph glyph-name="packing-o" unicode="&#59525;" d="M768 128H512v64h256v-64z m0 192H576v-64h192v64z m128 288v-576c0-17.6-14.4-32-32-32H160c-17.6 0-32 14.4-32 32V608h-0.8l70.4 124.8c11.2 21.6 32.8 35.2 57.6 35.2H768c24 0 46.4-13.6 57.6-35.2L896 608zM528 704v-96h304.8l-44.8 77.6c-4 9.6-12.8 16.8-23.2 18.4m-505.6 0c-10.4-1.6-19.2-8.8-23.2-18.4L191.2 608H496V704m336-128H192v-512h640V576z"  horiz-adv-x="1024" />

    
    <glyph glyph-name="pickup" unicode="&#59526;" d="M896 576v-544c0-17.6-14.4-32-32-32H160c-17.6 0-32 14.4-32 32V576h12.8l360 257.6 37.6-52L251.2 576h447.2l-181.6 65.6 21.6 60L884.8 576h11.2zM768 192H512v-64h256v64z m0 128H576v-64h192v64z"  horiz-adv-x="1024" />

    
    <glyph glyph-name="pickup-o" unicode="&#59527;" d="M512 192h256v-64H512zM576 320h192v-64H576zM885.6 576L539.2 702.4l-21.6-60L698.4 576H251.2l287.2 206.4-37.6 52L141.6 576H128v-544c0-17.6 14.4-32 32-32h704c17.6 0 32 14.4 32 32V576h-10.4z m-53.6-512H192V544h640v-480z"  horiz-adv-x="1024" />

    
    <glyph glyph-name="load" unicode="&#59530;" d="M448 32c0-42.4-28-81.6-71.2-92.8-51.2-13.6-104 16.8-117.6 68-9.6 35.2 1.6 71.2 26.4 94.4L155.2 588.8l-88 50.4 32 55.2 110.4-64L344 127.20000000000005c31.2 2.4 61.6-11.2 80.8-35.2L945.6 232l16.8-61.6L448 32z m447.2 252.8L435.2 161.60000000000002c-16.8-4.8-34.4 5.6-39.2 22.4L272.8 644c-4.8 16.8 5.6 34.4 22.4 39.2l460 123.2c16.8 4.8 34.4-5.6 39.2-22.4l123.2-460c4.8-17.6-5.6-35.2-22.4-39.2zM568.8 528l16.8-61.6 185.6 49.6-16.8 61.6L568.8 528z m235.2-135.2l-16.8 61.6-308.8-82.4 16.8-61.6 308.8 82.4z"  horiz-adv-x="1024" />

    
    <glyph glyph-name="load-o" unicode="&#59531;" d="M448 32.799999999999955c0-42.4-28-81.6-71.2-92.8-51.2-13.6-104 16.8-117.6 68-9.6 35.2 1.6 71.2 26.4 94.4L155.2 588.8l-88 50.4 32 55.2 110.4-64L344.8 128c31.2 2.4 61.6-11.2 80.8-35.2L944.8 232l16.8-61.6L448 32.799999999999955zM272.8 644c-4.8 16.8 5.6 34.4 22.4 39.2l460 123.2c2.4 0.8 5.6 0.8 8 0.8 14.4 0 27.2-9.6 31.2-24l123.2-460c4.8-16.8-5.6-34.4-22.4-39.2L435.2 161.60000000000002c-2.4-0.8-5.6-0.8-8-0.8-14.4 0-27.2 9.6-31.2 24L272.8 644z m70.4-14.4L449.6 232 848 338.4 740.8 736 343.2 629.6z m152-319.2l308.8 83.2-16.8 61.6-308.8-83.2 16.8-61.6z m90.4 156.8l185.6 49.6-16.8 61.6-185.6-49.6 16.8-61.6z"  horiz-adv-x="1024" />

    
    <glyph glyph-name="quality-o" unicode="&#59532;" d="M512 761.6l289.6-133.6V424c0-96.8-31.2-193.6-88.8-272.8-52.8-73.6-124-126.4-200.8-150.4-77.6 24-148 76.8-200.8 150.4-57.6 79.2-88.8 176-88.8 272.8V628L512 761.6m0 71.2L158.4 669.6v-244.8c0-226.4 151.2-437.6 353.6-489.6 203.2 51.2 353.6 263.2 353.6 489.6V669.6L512 832.8z m191.2-447.2c0 106.4-85.6 192-192 192s-192-85.6-192-192 85.6-192 192-192c24 0 46.4 4.8 68 12l58.4-58.4 45.6 45.6-47.2 47.2c40.8 35.2 67.2 87.2 67.2 145.6z m-192-128c-70.4 0-128 57.6-128 128s57.6 128 128 128 128-57.6 128-128c0-40.8-19.2-76.8-48.8-100l-43.2 43.2-45.6-45.6 24.8-24.8c-4.8 0-10.4-0.8-15.2-0.8z"  horiz-adv-x="1024" />

    
    <glyph glyph-name="quality" unicode="&#59533;" d="M640 384c0-40.8-19.2-76.8-48.8-100l-43.2 43.2-45.6-45.6 24.8-24.8c-4.8-0.8-10.4-0.8-15.2-0.8-70.4 0-128 57.6-128 128s57.6 128 128 128 128-57.6 128-128z m226.4 283.2v-244.8c0-226.4-151.2-437.6-353.6-489.6-203.2 51.2-354.4 263.2-354.4 489.6V667.2L512.8 830.4l353.6-163.2zM636.8 238.39999999999998C677.6 273.6 704 325.6 704 384c0 106.4-85.6 192-192 192S320 489.6 320 384s85.6-192 192-192c24 0 46.4 4.8 68 12l58.4-58.4 45.6 45.6-47.2 47.2z"  horiz-adv-x="1024" />

    
    <glyph glyph-name="security" unicode="&#59534;" d="M512 832.8L160.8 669.6v-244.8c0-226.4 149.6-437.6 351.2-489.6 201.6 51.2 351.2 263.2 351.2 489.6V669.6L512 832.8z m-8-574.4l-45.6-45.6-45.6 45.6-90.4 90.4 45.6 45.6L458.4 304l204 204 45.6-45.6L504 258.4z"  horiz-adv-x="1024" />

    
    <glyph glyph-name="security-o" unicode="&#59535;" d="M512 832.8L160.8 669.6v-244.8c0-226.4 149.6-437.6 351.2-489.6 201.6 51.2 351.2 263.2 351.2 489.6V669.6L512 832.8z m287.2-408c0-96.8-31.2-193.6-88-272.8-52.8-73.6-122.4-126.4-199.2-149.6-76 24-146.4 76-199.2 149.6-56.8 79.2-88 176.8-88 272.8V628.8L512 761.6l287.2-133.6v-203.2zM458.4 304l204 204 45.6-45.6L504 258.4l-45.6-45.6-45.6 45.6-90.4 90.4 45.6 45.6L458.4 304z"  horiz-adv-x="1024" />

    
    <glyph glyph-name="warehouse" unicode="&#59536;" d="M920 540.8L531.2 818.4c-11.2 8-26.4 8-36.8 0L104 540.8c-12.8-8.8-6.4-28.8 9.6-28.8H192v-496c0-8.8 7.2-16 16-16h608c8.8 0 16 7.2 16 16V512h78.4c15.2 0 21.6 20 9.6 28.8zM640 128H384v64h256v-64z m0 128H384v64h256v-64z m0 128H384v64h256v-64z"  horiz-adv-x="1024" />

    
    <glyph glyph-name="warehouse-o" unicode="&#59537;" d="M512.8 753.6L768 570.4V64H256V570.4l256.8 183.2m0 71.2c-6.4 0-12.8-1.6-18.4-5.6L104 540.8c-12.8-8.8-6.4-28.8 9.6-28.8H192v-496c0-8.8 7.2-16 16-16h608c8.8 0 16 7.2 16 16V512h78.4c15.2 0 21.6 20 9.6 28.8L531.2 818.4c-5.6 4-12 6.4-18.4 6.4zM640 448H384v-64h256v64z m0-128H384v-64h256v64z m0-128H384v-64h256v64z"  horiz-adv-x="1024" />

    
    <glyph glyph-name="transfer-o" unicode="&#59538;" d="M512.8 753.6L768 570.4V64H256V570.4l256.8 183.2m0 71.2c-6.4 0-12.8-1.6-18.4-5.6L104 540.8c-12.8-8.8-6.4-28.8 9.6-28.8H192v-496c0-8.8 7.2-16 16-16h608c8.8 0 16 7.2 16 16V512h78.4c15.2 0 21.6 20 9.6 28.8L531.2 818.4c-5.6 4-12 6.4-18.4 6.4z m144-483.2L570.4 256h52c-22.4-38.4-63.2-64-110.4-64-32 0-61.6 12-84 32l-57.6-32.8C405.6 152 456 128 512 128c83.2 0 154.4 53.6 180.8 128h50.4L656.8 341.6zM401.6 384c22.4 38.4 63.2 64 110.4 64 32.8 0 62.4-12.8 84.8-32.8l57.6 32.8c-35.2 39.2-85.6 64-142.4 64-83.2 0-154.4-53.6-180.8-128h-50.4l86.4-85.6L453.6 384h-52z"  horiz-adv-x="1024" />

    
    <glyph glyph-name="transfer" unicode="&#59539;" d="M919.2 540.8L531.2 818.4c-11.2 8-26.4 8-36.8 0L104 540.8c-12.8-8.8-6.4-28.8 9.6-28.8H192v-496c0-8.8 7.2-16 16-16h608c8.8 0 16 7.2 16 16V512h78.4c15.2 0 21.6 20 8.8 28.8zM280.8 384h51.2c26.4 74.4 97.6 127.2 180.8 127.2 56.8 0 107.2-24.8 142.4-64l-57.6-32.8c-22.4 20-52.8 32.8-84.8 32.8-47.2 0-88-25.6-110.4-63.2h51.2L367.2 298.4 280.8 384z m412-128C665.6 181.60000000000002 595.2 128.79999999999995 512 128.79999999999995c-56 0-106.4 24-141.6 63.2l57.6 32.8c22.4-20 52-32 84-32 47.2 0 88 25.6 110.4 63.2h-51.2l86.4 85.6L743.2 256h-50.4z"  horiz-adv-x="1024" />

    
    <glyph glyph-name="inventory-o" unicode="&#59540;" d="M512.8 753.6L768 570.4V64H256V570.4l256.8 183.2m0 71.2c-6.4 0-12.8-1.6-18.4-5.6L104 540.8c-12.8-8.8-6.4-28.8 9.6-28.8H192v-496c0-8.8 7.2-16 16-16h608c8.8 0 16 7.2 16 16V512h78.4c15.2 0 21.6 20 9.6 28.8L531.2 818.4c-5.6 4-12 6.4-18.4 6.4zM704 256H576v-128h128V256z m-256 0H320v-128h128V256z m128 192H448v-128h128V448z"  horiz-adv-x="1024" />

    
    <glyph glyph-name="inventory" unicode="&#59541;" d="M919.2 540.8L531.2 818.4c-11.2 8-26.4 8-36.8 0L104 540.8c-12.8-8.8-6.4-28.8 9.6-28.8H192v-496c0-8.8 7.2-16 16-16h608c8.8 0 16 7.2 16 16V512h78.4c15.2 0 21.6 20 8.8 28.8zM448 128H320V256h128v-128z m0 320h128v-128H448V448z m256-320H576V256h128v-128z"  horiz-adv-x="1024" />

    
    <glyph glyph-name="terminal-o" unicode="&#59542;" d="M758.4 704l76.8-192H768v-448H256V512h-68l80 192h490.4m32 64H236c-6.4 0-12-4-14.4-9.6l-120-288c-4-10.4 3.2-22.4 14.4-22.4H192v-432c0-8.8 7.2-16 16-16h608c8.8 0 16 7.2 16 16V448h73.6c11.2 0 19.2 11.2 15.2 21.6l-115.2 288c-2.4 6.4-8.8 10.4-15.2 10.4zM640 448H384v-64h256v64z m0-128H384v-64h256v64z m0-128H384v-64h256v64z"  horiz-adv-x="1024" />

    
    <glyph glyph-name="terminal" unicode="&#59543;" d="M920.8 469.6l-115.2 288c-2.4 6.4-8 10.4-15.2 10.4H236c-6.4 0-12-4-14.4-9.6l-120-288c-4-10.4 3.2-22.4 14.4-22.4H192v-432c0-8.8 7.2-16 16-16h608c8.8 0 16 7.2 16 16V448h73.6c11.2 0 19.2 11.2 15.2 21.6zM640 128H384v64h256v-64z m0 128H384v64h256v-64z m0 128H384v64h256v-64z"  horiz-adv-x="1024" />

    
    <glyph glyph-name="pod-accept-o" unicode="&#59544;" d="M768 704H640c0 70.4-57.6 128-128 128s-128-57.6-128-128H256c-35.2 0-64-28.8-64-64v-640c0-35.2 28.8-64 64-64h512c35.2 0 64 28.8 64 64V640c0 35.2-28.8 64-64 64z m-256 32c17.6 0 32-14.4 32-32s-14.4-32-32-32-32 14.4-32 32 14.4 32 32 32z m256-736H256V640h64v-64h384v64h64v-640z m-59.2 404.8L459.2 156l-45.6 45.6 248.8 248.8 46.4-45.6z m-340-68l136-136-45.6-45.6-136 136 45.6 45.6z"  horiz-adv-x="1024" />

    
    <glyph glyph-name="pod-accept" unicode="&#59545;" d="M800 704H640c0 70.4-57.6 128-128 128s-128-57.6-128-128H224c-17.6 0-32-14.4-32-32v-704c0-17.6 14.4-32 32-32h576c17.6 0 32 14.4 32 32V672c0 17.6-14.4 32-32 32z m-288 32c17.6 0 32-14.4 32-32s-14.4-32-32-32-32 14.4-32 32 14.4 32 32 32z m-7.2-535.2l-45.6-45.6-45.6 45.6-89.6 90.4 45.6 45.6 90.4-90.4L664 450.4l45.6-45.6-204.8-204z"  horiz-adv-x="1024" />

    
    <glyph glyph-name="pod-reject-o" unicode="&#59546;" d="M256 217.60000000000002V640h64v-64h288l128 128H640c0 70.4-57.6 128-128 128s-128-57.6-128-128H256c-35.2 0-64-28.8-64-64v-480l64 57.6zM512 736c17.6 0 32-14.4 32-32s-14.4-32-32-32-32 14.4-32 32 14.4 32 32 32z m396-43.2l-45.6 45.6-753.6-753.6 45.6-45.6 40.8 40.8c8-25.6 32.8-44.8 60.8-44.8h512c35.2 0 64 28.8 64 64V617.6l76 75.2zM768 0H256v40l512 519.2V0z"  horiz-adv-x="1024" />

    
    <glyph glyph-name="pod-reject" unicode="&#59547;" d="M736.8 704h-96c0 70.4-57.6 128-128 128s-128-57.6-128-128h-128c-35.2 0-64-28.8-64-64v-480l544 544z m-224 32c17.6 0 32-14.4 32-32s-14.4-32-32-32-32 14.4-32 32 13.6 32 32 32z m350.4 2.4l45.6-45.6-76.8-75.2V0c0-35.2-28.8-64-64-64H256c-28.8 0-52.8 18.4-60.8 44.8l-40.8-40.8-45.6 45.6"  horiz-adv-x="1024" />

    
    <glyph glyph-name="send-o" unicode="&#59548;" d="M926.4 336L152 748.8c-11.2 5.6-24.8-3.2-23.2-15.2l60-714.4c0.8-11.2 12-17.6 22.4-13.6l249.6 104.8 136.8-155.2c8.8-9.6 24-5.6 27.2 6.4L689.6 208l235.2 99.2c12 4.8 12.8 22.4 1.6 28.8z m-688.8-266.4l-56 544 256-456-200-88z m-80 656l488-504-48-192m88 232l-400 384 560-320-160-64z"  horiz-adv-x="1024" />

    
    <glyph glyph-name="send" unicode="&#59549;" d="M925.6 336.79999999999995L152 750.4c-11.2 5.6-24.8-3.2-23.2-15.2l60-714.4c0.8-11.2 12-17.6 22.4-13.6L460.8 112l136.8-155.2c8.8-9.6 24-5.6 27.2 6.4l65.6 245.6 235.2 99.2c11.2 5.6 12 22.4 0 28.8z m-328-305.6l-72 128-368 568 488-504-48-192z"  horiz-adv-x="1024" />

    
    <glyph glyph-name="corp" unicode="&#59550;" d="M832 0V683.2c0 8.8-7.2 16-16 16H640V816c0 8.8-7.2 16-16 16H208c-8.8 0-16-7.2-16-16v-816h-64v-64h768v64h-64zM384 128h-64v64h64v-64z m0 128h-64v64h64v-64z m0 128h-64v64h64v-64z m0 128h-64v64h64v-64z m0 128h-64v64h64v-64z m128-512h-64v64h64v-64z m0 128h-64v64h64v-64z m0 128h-64v64h64v-64z m0 128h-64v64h64v-64z m0 128h-64v64h64v-64z m192-512h-64v64h64v-64z m0 128h-64v64h64v-64z m0 128h-64v64h64v-64z m0 128h-64v64h64v-64z"  horiz-adv-x="1024" />

    
    <glyph glyph-name="corp-o" unicode="&#59551;" d="M832 0V683.2c0 8.8-7.2 16-16 16H640V816c0 8.8-7.2 16-16 16H208c-8.8 0-16-7.2-16-16v-816h-64v-64h768v64h-64z m-64 635.2V32H640V128h64v64h-64v64h64v64h-64v64h64v64h-64v64h64v64h-64v59.2h128zM256 768h320v-736H256V768z m64-64h64v-64h-64v64z m128 0h64v-64h-64v64zM320 576h64v-64h-64v64z m128 0h64v-64h-64v64zM320 448h64v-64h-64v64z m128 0h64v-64h-64v64zM320 320h64v-64h-64v64z m128 0h64v-64h-64v64zM320 192h64v-64h-64v64z m128 0h64v-64h-64v64z"  horiz-adv-x="1024" />

    
    <glyph glyph-name="rule" unicode="&#59554;" d="M896 704v-64H384v64h512zM224 576c52.8 0 96 43.2 96 96s-43.2 96-96 96-96-43.2-96-96 43.2-96 96-96z m128-160H128v-64h224v64z m320-64h224v64H672v-64z m-64 32c0 52.8-43.2 96-96 96s-96-43.2-96-96 43.2-96 96-96 96 43.2 96 96z m-480-320h512v64H128v-64z m672 128c-52.8 0-96-43.2-96-96s43.2-96 96-96 96 43.2 96 96-43.2 96-96 96z"  horiz-adv-x="1024" />

    
    <glyph glyph-name="order-o" unicode="&#59555;" d="M800 704H640c0 70.4-57.6 128-128 128s-128-57.6-128-128H224c-17.6 0-32-14.4-32-32v-704c0-17.6 14.4-32 32-32h576c17.6 0 32 14.4 32 32V672c0 17.6-14.4 32-32 32z m-288 32c17.6 0 32-14.4 32-32s-14.4-32-32-32-32 14.4-32 32 14.4 32 32 32z m256-736H256V640h64v-64h384v64h64v-640z m-64 384H320v64h384v-64z m0-128H320v64h384v-64zM576 128H320v64h256v-64z"  horiz-adv-x="1024" />

    
    <glyph glyph-name="flow" unicode="&#59556;" d="M256 256h-64V448h288V576h64v-128h288v-192h-64V384H544v-128h-64V384H256v-128z m256 384c52.8 0 96 43.2 96 96S564.8 832 512 832s-96-43.2-96-96 43.2-96 96-96z m0-448c-52.8 0-96-43.2-96-96s43.2-96 96-96 96 43.2 96 96-43.2 96-96 96z m-288 0c-52.8 0-96-43.2-96-96s43.2-96 96-96 96 43.2 96 96-43.2 96-96 96z m576 0c-52.8 0-96-43.2-96-96s43.2-96 96-96 96 43.2 96 96-43.2 96-96 96z"  horiz-adv-x="1024" />

    
    <glyph glyph-name="order" unicode="&#59557;" d="M800 704H640c0 70.4-57.6 128-128 128s-128-57.6-128-128H224c-17.6 0-32-14.4-32-32v-704c0-17.6 14.4-32 32-32h576c17.6 0 32 14.4 32 32V672c0 17.6-14.4 32-32 32z m-288 32c17.6 0 32-14.4 32-32s-14.4-32-32-32-32 14.4-32 32 14.4 32 32 32z m64-608H320v64h256v-64z m128 128H320v64h384v-64z m0 128H320v64h384v-64z"  horiz-adv-x="1024" />

    
    <glyph glyph-name="order-add-o" unicode="&#59558;" d="M768 704H640c0 70.4-57.6 128-128 128s-128-57.6-128-128H256c-35.2 0-64-28.8-64-64v-640c0-35.2 28.8-64 64-64h512c35.2 0 64 28.8 64 64V640c0 35.2-28.8 64-64 64z m-256 32c17.6 0 32-14.4 32-32s-14.4-32-32-32-32 14.4-32 32 14.4 32 32 32z m256-736H256V640h64v-64h384v64h64v-640zM672 256H544v-128h-64V256H352v64h128V448h64v-128h128v-64z"  horiz-adv-x="1024" />

    
    <glyph glyph-name="order-add" unicode="&#59559;" d="M768 704H640c0 70.4-57.6 128-128 128s-128-57.6-128-128H256c-35.2 0-64-28.8-64-64v-640c0-35.2 28.8-64 64-64h512c35.2 0 64 28.8 64 64V640c0 35.2-28.8 64-64 64z m-256 32c17.6 0 32-14.4 32-32s-14.4-32-32-32-32 14.4-32 32 14.4 32 32 32z m160-480H544v-128h-64V256H352v64h128V448h64v-128h128v-64z"  horiz-adv-x="1024" />

    
    <glyph glyph-name="bill-o" unicode="&#59560;" d="M800 704H640c0 70.4-57.6 128-128 128s-128-56.8-128-128H224c-17.6 0-32-14.4-32-32v-704c0-17.6 14.4-32 32-32h576c17.6 0 32 14.4 32 32V672c0 17.6-14.4 32-32 32z m-288 32c17.6 0 32-14.4 32-32s-14.4-32-32-32-32 14.4-32 32 14.4 32 32 32z m256-736H256V640h64v-64h384v64h64v-640zM589.6 384H672v-64H544v-64h128v-64H544v-128h-64V192H352v64h128v64H352v64h82.4L352 466.4l45.6 45.6L512 397.6 626.4 512l45.6-45.6L589.6 384z"  horiz-adv-x="1024" />

    
    <glyph glyph-name="bill" unicode="&#59561;" d="M800 704H640c0 70.4-57.6 128-128 128s-128-56.8-128-128H224c-17.6 0-32-14.4-32-32v-704c0-17.6 14.4-32 32-32h576c17.6 0 32 14.4 32 32V672c0 17.6-14.4 32-32 32z m-288 32c17.6 0 32-14.4 32-32s-14.4-32-32-32-32 14.4-32 32 14.4 32 32 32z m160-416H544v-64h128v-64H544v-128h-64V192H352v64h128v64H352v64h82.4L352 466.4l45.6 45.6L512 397.6 626.4 512l45.6-45.6L589.6 384H672v-64z"  horiz-adv-x="1024" />

    
    <glyph glyph-name="sku" unicode="&#59562;" d="M496 0.7999999999999545L138.4 124.79999999999995c-6.4 2.4-10.4 8-10.4 15.2V608.8l368-112v-496z m32 0l357.6 124c6.4 2.4 10.4 8 10.4 15.2V608.8l-368-112v-496z m-400 640l384-112 384 112-379.2 125.6c-3.2 0.8-7.2 0.8-10.4 0L128 640.8z"  horiz-adv-x="1024" />

    
    <glyph glyph-name="sku-o" unicode="&#59563;" d="M884.8 643.2L517.6 765.6c-1.6 0.8-3.2 0.8-4.8 0.8-1.6 0-3.2 0-4.8-0.8L139.2 641.6c-6.4-2.4-11.2-8-11.2-15.2v-486.4c0-7.2 4.8-12.8 11.2-15.2l368.8-122.4c1.6-0.8 3.2-0.8 4.8-0.8 1.6 0 3.2 0 4.8 0.8l367.2 122.4c6.4 2.4 11.2 8 11.2 15.2v488c0 7.2-4.8 12.8-11.2 15.2z m-372 56.8l269.6-89.6L512 512 244 609.6l268.8 90.4zM192 592l3.2 0.8L496 484v-410.4L192 174.39999999999998V592z m640-417.6l-304-101.6V484l303.2 109.6h0.8v-419.2z"  horiz-adv-x="1024" />

    
    <glyph glyph-name="business-o" unicode="&#59564;" d="M607.2 768H416.8c-17.6 0-32.8-14.4-32.8-32.8V640H160c-17.6 0-32-14.4-32-32v-576c0-17.6 14.4-32 32-32h704c17.6 0 32 14.4 32 32V608c0 17.6-14.4 32-32 32H640V735.2c0 18.4-14.4 32.8-32.8 32.8zM448 640v64h128v-64H448z m64-256l-320 53.6V576h640v-138.4L512 384z m0-32l320 53.6V64H192V405.6L512 352z m48 160H464c-8.8 0-16-7.2-16-16v-32c0-8.8 7.2-16 16-16h96c8.8 0 16 7.2 16 16v32c0 8.8-7.2 16-16 16z"  horiz-adv-x="1024" />

    
    <glyph glyph-name="business" unicode="&#59565;" d="M864 640H640V735.2c0 17.6-14.4 32.8-32.8 32.8H416.8c-17.6 0-32.8-14.4-32.8-32.8V640H160c-17.6 0-32-14.4-32-32v-160l384-64 384 64V608c0 17.6-14.4 32-32 32z m-416 64h128v-64H448v64z m128-240c0-8.8-7.2-16-16-16H464c-8.8 0-16 7.2-16 16v32c0 8.8 7.2 16 16 16h96c8.8 0 16-7.2 16-16v-32z m-64-112l384 64v-384c0-17.6-14.4-32-32-32H160c-17.6 0-32 14.4-32 32V416l384-64z"  horiz-adv-x="1024" />

    
    <glyph glyph-name="apps-o" unicode="&#59566;" d="M416 704v-224H192V704h224m48 64H144c-8.8 0-16-7.2-16-16v-320c0-8.8 7.2-16 16-16h320c8.8 0 16 7.2 16 16V752c0 8.8-7.2 16-16 16z m-48-480v-224H192V288h224m48 64H144c-8.8 0-16-7.2-16-16v-320c0-8.8 7.2-16 16-16h320c8.8 0 16 7.2 16 16V336c0 8.8-7.2 16-16 16z m368 352v-224H608V704h224m48 64H560c-8.8 0-16-7.2-16-16v-320c0-8.8 7.2-16 16-16h320c8.8 0 16 7.2 16 16V752c0 8.8-7.2 16-16 16z m-48-480v-224H608V288h224m48 64H560c-8.8 0-16-7.2-16-16v-320c0-8.8 7.2-16 16-16h320c8.8 0 16 7.2 16 16V336c0 8.8-7.2 16-16 16z"  horiz-adv-x="1024" />

    
    <glyph glyph-name="apps" unicode="&#59567;" d="M464 416H144c-8.8 0-16 7.2-16 16V752c0 8.8 7.2 16 16 16h320c8.8 0 16-7.2 16-16v-320c0-8.8-7.2-16-16-16z m16-400V336c0 8.8-7.2 16-16 16H144c-8.8 0-16-7.2-16-16v-320c0-8.8 7.2-16 16-16h320c8.8 0 16 7.2 16 16z m352 688H608v-224h224V704m48 64c8.8 0 16-7.2 16-16v-320c0-8.8-7.2-16-16-16H560c-8.8 0-16 7.2-16 16V752c0 8.8 7.2 16 16 16h320z m16-752V336c0 8.8-7.2 16-16 16H560c-8.8 0-16-7.2-16-16v-320c0-8.8 7.2-16 16-16h320c8.8 0 16 7.2 16 16z"  horiz-adv-x="1024" />

    
    <glyph glyph-name="resource" unicode="&#59568;" d="M896 640v-32L512 480 128 608v32l384 128 384-128zM512 416L224 512l-96-32v-32l384-128 384 128v32l-96 32-288-96z m0-160L224 352l-96-32v-32l384-128 384 128v32l-96 32-288-96z m0-160L224 192l-96-32v-32l384-128 384 128v32l-96 32-288-96z"  horiz-adv-x="1024" />

    
    <glyph glyph-name="resource-o" unicode="&#59569;" d="M512 700.8L741.6 624 512 547.2 282.4 624 512 700.8m0 67.2L128 640v-32l384-128 384 128v32L512 768z m0-389.6l-320 104h-64v-32l384-128 384 128v32h-64l-320-104zM512 216L192 320h-64v-32l384-128 384 128v32h-64L512 216z m0-160L192 160h-64v-32l384-128 384 128v32h-64l-320-104z"  horiz-adv-x="1024" />

    
    <glyph glyph-name="partner-o" unicode="&#59570;" d="M768.8 704c35.2 0 64-28.8 64-64s-28.8-64-64-64-64 28.8-64 64 28.8 64 64 64m-513.6 0c35.2 0 64-28.8 64-64s-28.8-64-64-64-64 28.8-64 64 28.8 64 64 64M768 384c35.2 0 64-28.8 64-64v-256H704V320c0 35.2 28.8 64 64 64m-512 0c35.2 0 64-28.8 64-64v-256H192V320c0 35.2 28.8 64 64 64m512.8 384c-70.4 0-128-57.6-128-128s57.6-128 128-128 128 57.6 128 128-57.6 128-128 128z m-513.6 0c-70.4 0-128-57.6-128-128s57.6-128 128-128 128 57.6 128 128-56.8 128-128 128zM768 448c-70.4 0-128-57.6-128-128v-51.2l-128.8-74.4L384 268v48.8c0 62.4-43.2 117.6-104 128.8-80.8 15.2-152-47.2-152-125.6v-288c0-17.6 14.4-32 32-32h192c17.6 0 32 14.4 32 32V194.39999999999998l110.4-64c0.8 0 0.8-0.8 1.6-0.8 4.8-3.2 10.4-4 16-4s10.4 1.6 16 4l112 65.6V32c0-17.6 14.4-32 32-32h192c17.6 0 32 14.4 32 32V320c0 70.4-57.6 128-128 128z"  horiz-adv-x="1024" />

    
    <glyph glyph-name="partner" unicode="&#59571;" d="M127.2 640c0 70.4 57.6 128 128 128s128-57.6 128-128-57.6-128-128-128-128 57.6-128 128z m641.6-128c70.4 0 128 57.6 128 128s-57.6 128-128 128-128-57.6-128-128 56.8-128 128-128z m0-64c-70.4 0-128-57.6-128-128v-51.2L512 194.39999999999998l-128 74.4V320c0 70.4-57.6 128-128 128s-128-57.6-128-128v-288c0-17.6 14.4-32 32-32h192c17.6 0 32 14.4 32 32V194.39999999999998l110.4-64c0.8 0 0.8-0.8 1.6-0.8 9.6-5.6 21.6-6.4 32 0l112.8 65.6V32c0-17.6 14.4-32 32-32h192c17.6 0 32 14.4 32 32V320c0 70.4-57.6 128-128 128z"  horiz-adv-x="1024" />

    
    <glyph glyph-name="route" unicode="&#59572;" d="M719.2 416H305.6c-57.6 0-108 41.6-114.4 99.2-7.2 67.2 45.6 124.8 112 124.8H728v-64l166.4 96L728 768v-64H303.2c-97.6 0-176-78.4-176-176s78.4-176 176-176h413.6c57.6 0 108-41.6 114.4-99.2 8-67.2-45.6-124.8-111.2-124.8H296v64l-168-98.4L296 0v64h423.2c97.6 0 176 78.4 176 176s-78.4 176-176 176z"  horiz-adv-x="1024" />

    
    <glyph glyph-name="service-o" unicode="&#59573;" d="M384 0h-64v70.4c0 15.2-10.4 28-24.8 31.2C159.2 128 64 251.20000000000005 64 400v32h64v-32c0-118.4 73.6-215.2 179.2-236 44.8-8.8 76.8-48 76.8-94.4v-69.6z m320 0h-64v70.4c0 45.6 32 85.6 76.8 94.4C822.4 184.79999999999995 896 281.6 896 400v32h64v-32c0-148.8-95.2-272-231.2-298.4-14.4-3.2-24.8-16-24.8-31.2v-70.4z m-62.4 703.2c52.8 0 92.8-40 92.8-92.8 0-65.6-58.4-121.6-180.8-231.2-12.8-12-26.4-24-40.8-36.8-14.4 13.6-28.8 26.4-42.4 38.4C349.6 489.6 291.2 544 291.2 610.4c0 52.8 40 92.8 92.8 92.8 29.6 0 60.8-14.4 80-37.6l48.8-57.6 48.8 57.6c19.2 23.2 50.4 37.6 80 37.6m0 64C592 767.2 544 744 512.8 707.2c-31.2 36.8-79.2 60-128.8 60-88 0-156.8-68.8-156.8-156.8 0-108.8 96.8-183.2 244-316.8l41.6-37.6 41.6 37.6c147.2 133.6 244 208.8 244 316.8 0 88-68.8 156.8-156.8 156.8z"  horiz-adv-x="1024" />

    
    <glyph glyph-name="service" unicode="&#59574;" d="M384 0h-64v70.4c0 15.2-10.4 28-24.8 31.2C159.2 128 64 251.20000000000005 64 400v32h64v-32c0-118.4 73.6-215.2 179.2-236 44.8-8.8 76.8-48 76.8-94.4v-69.6zM704 0h-64v70.4c0 45.6 32 85.6 76.8 94.4C822.4 184.79999999999995 896 281.6 896 400v32h64v-32c0-148.8-95.2-272-231.2-298.4-14.4-3.2-24.8-16-24.8-31.2v-70.4zM512.8 256l-41.6 37.6c-147.2 133.6-244 208-244 316.8 0 88 68.8 156.8 156.8 156.8 49.6 0 97.6-23.2 128.8-60C544 744 592 767.2 641.6 767.2c88 0 156.8-68.8 156.8-156.8 0-108-96.8-183.2-244-316.8L512.8 256z"  horiz-adv-x="1024" />

    
    <glyph glyph-name="help-desk-o" unicode="&#59575;" d="M512 704c61.6 0 118.4-36 144.8-91.2l2.4-4.8H608v-64c0-52.8-43.2-96-96-96s-96 43.2-96 96v64h-50.4l2.4 4.8C393.6 668 450.4 704 512 704m0 64c-88.8 0-166.4-52-202.4-128H256v-128h80v32h16c0-88 72-160 160-160s160 72 160 160h16v-32h16.8c-10.4-82.4-75.2-148-157.6-160-7.2 8.8-18.4 14.4-30.4 14.4-21.6 0-39.2-17.6-39.2-39.2s17.6-39.2 39.2-39.2c19.2 0 35.2 14.4 38.4 32.8 96 16 170.4 93.6 181.6 191.2H768V640h-53.6C678.4 716 600.8 768 512 768zM385.6 240c35.2-30.4 80-48 126.4-48 48 0 92.8 16.8 127.2 48 52-12 100-28.8 134.4-48 17.6-9.6 58.4-36 58.4-62.4v-64.8H192v64c0 27.2 41.6 53.6 59.2 63.2 35.2 19.2 82.4 36 134.4 48M616 309.6c-23.2-32.8-60.8-53.6-104-53.6s-80.8 21.6-104 53.6C280 287.20000000000005 128 226.39999999999998 128 128v-96c0-17.6 14.4-32 32-32h704c17.6 0 32 14.4 32 32V128.79999999999995c0.8 98.4-151.2 158.4-280 180.8z"  horiz-adv-x="1024" />

    
    <glyph glyph-name="help-desk" unicode="&#59576;" d="M336 544h16c0-88 72-160 160-160s160 72 160 160h16v-32h16.8c-10.4-82.4-75.2-148-157.6-160-7.2 8.8-18.4 14.4-30.4 14.4-21.6 0-39.2-17.6-39.2-39.2s17.6-39.2 39.2-39.2c19.2 0 35.2 14.4 38.4 32.8 96 16 170.4 93.6 181.6 191.2H768V640h-53.6C678.4 716 600.8 768 512 768s-166.4-52-202.4-128H256v-128h80v32zM616 309.6c-23.2-32.8-60.8-53.6-104-53.6s-80.8 21.6-104 53.6C280 287.20000000000005 128 226.39999999999998 128 128v-96c0-17.6 14.4-32 32-32h704c17.6 0 32 14.4 32 32V128.79999999999995c0.8 98.4-151.2 158.4-280 180.8z"  horiz-adv-x="1024" />

    
    <glyph glyph-name="globe-o" unicode="&#59577;" d="M512 768c28 0 55.2-3.2 81.6-8.8V721.6c0-18.4-15.2-33.6-33.6-33.6H401.6v-144h-152v-96l-64 64-25.6 25.6C219.2 672.8 355.2 768 512 768m81.6-448v-192h112c14.4 0 25.6-8.8 30.4-21.6l8.8-28c-60-45.6-134.4-74.4-214.4-77.6V158.39999999999998h-64c-17.6 0-32 14.4-32 32V264L416 282.4 377.6 320h216M512 832C264.8 832 64 631.2 64 384s200.8-448 448-448 448 200.8 448 448S759.2 832 512 832zM313.6 384V480h103.2c27.2 0 48.8 21.6 48.8 48.8V624H560c53.6 0 97.6 44 97.6 97.6v18.4c140.8-56.8 240-194.4 240-356 0-100-37.6-190.4-100.8-259.2-12 39.2-48 67.2-91.2 67.2h-48V335.20000000000005c0 27.2-21.6 48.8-48.8 48.8H313.6z m152-383.2c-189.6 23.2-336 184.8-336 380.8 0 29.6 4 58.4 10.4 85.6l229.6-229.6v-48c0-52.8 43.2-96 96-96v-92.8z"  horiz-adv-x="1024" />

    
    <glyph glyph-name="globe" unicode="&#59578;" d="M512 832C264.8 832 64 631.2 64 384s200.8-448 448-448 448 200.8 448 448S759.2 832 512 832z m-46.4-831.2c-189.6 23.2-336 184.8-336 380.8 0 29.6 4 58.4 10.4 85.6l229.6-229.6v-48c0-52.8 43.2-96 96-96v-92.8z m331.2 124c-12 39.2-48 67.2-91.2 67.2h-48V335.20000000000005c0 27.2-21.6 48.8-48.8 48.8H313.6V480h103.2c27.2 0 48.8 21.6 48.8 48.8V624H560c53.6 0 97.6 44 97.6 97.6v18.4c140.8-56.8 240-194.4 240-356 0-100-37.6-190.4-100.8-259.2z"  horiz-adv-x="1024" />

    
    <glyph glyph-name="customs-o" unicode="&#59579;" d="M512 768c212 0 384-172 384-384s-172-384-384-384-384 172-384 384 172 384 384 384m0 64C264.8 832 64 631.2 64 384s200.8-448 448-448 448 200.8 448 448S759.2 832 512 832z m244.8-464.8s-12 32.8-12 77.6c0 0-2.4 8-4.8 0.8 0 0-1.6-41.6 0-44.8 0 0-11.2 0-14.4 48.8 0 0-0.8 8-2.4 0 0 0 0-42.4-7.2-16.8 0 0-6.4 23.2-7.2 37.6 0 0-4-2.4-6.4-13.6 0 0-7.2-0.8-9.6 29.6 0 0-2.4 7.2-4.8 0 0 0-3.2-11.2-1.6-16.8 0 0-10.4 1.6-9.6 32.8 0 0-6.4-3.2-4.8-14.4 0 0 0-7.2-4.8 0 0 0-13.6 12-28 7.2 0 0-4 0.8-14.4-10.4L589.6 448s11.2-22.4 35.2-12.8c0 0 5.6 0.8 12 6.4 0 0 0.8 16 10.4 18.4 0 0 12.8 2.4 23.2-9.6 0 0 11.2-14.4-0.8-27.2 0 0-13.6-37.6-83.2-13.6 0 0 8.8-33.6-34.4-45.6l-2.4-4 61.6-52s12-11.2 26.4-0.8c0 0 41.6 26.4 77.6 3.2 0 0 53.6-35.2 31.2-107.2 0 0-27.2-88-112-73.6 0 0-73.6 31.2-56 96.8l6.4 20s8 12-8 22.4l-61.6 55.2s-12-32.8-62.4-33.6c0 0 4-61.6-64-51.2L291.2 129.60000000000002l-4 3.2 87.2 120s-16 64.8 46.4 64l4 4s-15.2 42.4 28 60l-192 166.4s-11.2 8.8 0.8 27.2c0 0 16 8.8 29.6-4l192-153.6 4.8 4.8s3.2 38.4 45.6 42.4c0 0 3.2 12.8-6.4 28.8 0 0-12.8 22.4 0 40.8 0 0 10.4 16.8 32.8 8 0 0 21.6-9.6 10.4-23.2 0 0-8.8-8-13.6-8.8 0 0-3.2-34.4 18.4-32l36.8 40.8s10.4 12-4.8 24c0 0-13.6 7.2 3.2 12 0 0 6.4-0.8 7.2 4.8 0 0 1.6 3.2-12 3.2 0 0-21.6-2.4-20 5.6l19.2 3.2s7.2 3.2-2.4 3.2l-21.6 0.8s-11.2-0.8-16 6.4l24 0.8s6.4 0 4.8 5.6c0 0 0 2.4-8 2.4L536 592s-3.2 4.8 10.4 5.6l24.8 0.8s6.4 0.8-0.8 4.8c0 0 1.6 0.8-9.6 2.4l-46.4 2.4s-11.2 6.4-0.8 8l50.4 1.6s6.4 4 0 7.2H478.4s-4.8-1.6-9.6 6.4c0 0-1.6 4.8 7.2 6.4l114.4 2.4s37.6-0.8 44-36.8c0 0 2.4-11.2 1.6-27.2 0 0 4-11.2 12-8.8 0 0 8-3.2 17.6 9.6 0 0 2.4 8 3.2 13.6 0 0 0.8 16.8 25.6 15.2 0 0 17.6-7.2 25.6-23.2 0 0 8.8-9.6-3.2-20 0 0-7.2-10.4-21.6-10.4 0 0-15.2-4-14.4-18.4 0 0 0.8-21.6 24.8-18.4 0 0 17.6 12 31.2 4.8 0 0 21.6-8.8 21.6-46.4L768 356.79999999999995s-5.6-7.2-11.2 10.4z"  horiz-adv-x="1024" />

    
    <glyph glyph-name="customs" unicode="&#59580;" d="M512 832C264.8 832 64 631.2 64 384s200.8-448 448-448 448 200.8 448 448S759.2 832 512 832z m244.8-465.6s-12 32.8-12 77.6c0 0-2.4 8-4.8 0.8 0 0-1.6-41.6 0-44.8 0 0-11.2 0-14.4 48.8 0 0-0.8 8-2.4 0 0 0 0-42.4-7.2-16.8 0 0-6.4 23.2-7.2 37.6 0 0-4-2.4-6.4-13.6 0 0-7.2-0.8-9.6 29.6 0 0-2.4 7.2-4.8 0 0 0-3.2-11.2-1.6-16.8 0 0-10.4 1.6-9.6 32.8 0 0-6.4-3.2-4.8-14.4 0 0 0-7.2-4.8 0 0 0-13.6 12-28 7.2 0 0-4 0.8-14.4-10.4l-35.2-36.8s11.2-22.4 35.2-12.8c0 0 5.6 0.8 12 6.4 0 0 0.8 16 10.4 18.4 0 0 12.8 2.4 23.2-9.6 0 0 11.2-14.4-0.8-27.2 0 0-13.6-37.6-83.2-13.6 0 0 8.8-33.6-34.4-45.6l-3.2-3.2 61.6-52s12-11.2 26.4-0.8c0 0 41.6 26.4 77.6 3.2 0 0 53.6-35.2 31.2-107.2 0 0-27.2-88-112-73.6 0 0-73.6 31.2-56 96.8l6.4 20s8 12-8 22.4l-61.6 55.2s-12-32.8-62.4-33.6c0 0 4-61.6-64-51.2L291.2 128.79999999999995l-4 3.2 87.2 120s-16 64.8 46.4 64l4 4s-15.2 42.4 28 60l-192 166.4s-11.2 8.8 0.8 27.2c0 0 16 8.8 29.6-4l192-153.6 4.8 4.8s3.2 38.4 45.6 42.4c0 0 3.2 12.8-6.4 28.8 0 0-12.8 22.4 0 40.8 0 0 10.4 16.8 32.8 8 0 0 21.6-9.6 10.4-23.2 0 0-8.8-8-13.6-8.8 0 0-3.2-34.4 18.4-32l36.8 40.8s10.4 12-4.8 24c0 0-13.6 7.2 3.2 12 0 0 6.4-0.8 7.2 4.8 0 0 1.6 3.2-12 3.2 0 0-21.6-2.4-20 5.6l19.2 3.2s7.2 3.2-2.4 3.2l-21.6 0.8s-11.2-0.8-16 6.4l24 0.8s6.4 0 4.8 5.6c0 0 0 2.4-8 2.4l-49.6 1.6s-3.2 4.8 10.4 5.6l24.8 0.8s6.4 0.8-0.8 4.8c0 0 1.6 0.8-9.6 2.4l-46.4 3.2s-11.2 6.4-0.8 8l50.4 1.6s6.4 4 0 7.2H478.4s-4.8-1.6-9.6 6.4c0 0-1.6 4.8 7.2 6.4l114.4 2.4s37.6-0.8 44-36.8c0 0 2.4-11.2 1.6-27.2 0 0 4-11.2 12-8.8 0 0 8-3.2 17.6 9.6 0 0 2.4 8 3.2 13.6 0 0 0.8 16.8 25.6 15.2 0 0 17.6-7.2 25.6-23.2 0 0 8.8-9.6-3.2-20 0 0-7.2-10.4-21.6-10.4 0 0-15.2-4-14.4-18.4 0 0 0.8-21.6 24.8-18.4 0 0 17.6 12 31.2 4.8 0 0 21.6-8.8 21.6-46.4L768 356s-5.6-6.4-11.2 10.4z"  horiz-adv-x="1024" />

    
    <glyph glyph-name="departure" unicode="&#59581;" d="M64 128h896v-64H64v64z m893.6 337.6c-9.6 32-45.6 51.2-81.6 42.4l-221.6-52.8c-8.8-2.4-17.6-0.8-24.8 4l-376 244c-4 2.4-8 3.2-12.8 2.4l-51.2-12c-12-3.2-16.8-17.6-8-26.4l213.6-224c16.8-17.6 8-47.2-16-52.8L228.8 352c-8.8-2.4-18.4 0-25.6 4.8l-69.6 48.8c-4 2.4-8.8 3.2-12.8 2.4l-35.2-8.8c-10.4-2.4-16-15.2-9.6-24L144 268.79999999999995l21.6-33.6c7.2-11.2 20.8-16.8 34.4-13.6l48.8 12 234.4 56 192 46.4 234.4 56c36.8 8.8 57.6 41.6 48 73.6z"  horiz-adv-x="1024" />

    
    <glyph glyph-name="arrival" unicode="&#59582;" d="M64 128h896v-64H64v64z m868 121.6c2.4 32.8-25.6 63.2-61.6 67.2l-240 27.2-277.6 369.6c-2.4 3.2-6.4 5.6-11.2 6.4l-52.8 6.4c-12 1.6-21.6-11.2-16.8-22.4l146.4-335.2-224 25.6-56.8 81.6c-2.4 4-6.4 6.4-11.2 6.4l-36 4c-11.2 1.6-20-8.8-17.6-19.2L100.8 344l8.8-39.2c3.2-13.6 14.4-23.2 28-24.8l49.6-5.6 240-27.2L623.2 224l240-27.2c36-4 67.2 20 68.8 52.8z"  horiz-adv-x="1024" />

    
    <glyph glyph-name="finance" unicode="&#59583;" d="M512 832C264.8 832 64 631.2 64 384s200.8-448 448-448 448 200.8 448 448S759.2 832 512 832z m36-384H704v-64H544.8v-64H704v-64H544.8v-193.6h-64V256H320v64h160.8v64H320v64h157.6L332 593.6l45.6 45.6 136-136 136 136 45.6-45.6L548 448z"  horiz-adv-x="1024" />

    
    <glyph glyph-name="finance-o" unicode="&#59584;" d="M512 832C264.8 832 64 631.2 64 384s200.8-448 448-448 448 200.8 448 448S759.2 832 512 832z m0-832c-212 0-384 172-384 384s172 384 384 384 384-172 384-384-172-384-384-384z m36 448H704v-64H544.8v-64H704v-64H544.8v-193.6h-64V256H320v64h160.8v64H320v64h157.6L332 593.6l45.6 45.6 136-136 136 136 45.6-45.6L548 448z"  horiz-adv-x="1024" />

    
    <glyph glyph-name="mianfei" unicode="&#59585;" d="M383.2 384H320v64h127.2l16 16-130.4 129.6 45.6 45.6 130.4-130.4 249.6 249.6C688 804.8 604 832 512.8 832c-247.2 0-448-200.8-448-448 0-90.4 27.2-174.4 73.6-245.6L383.2 384zM115.2 24l45.6-45.6 63.2 63.2C301.6-24 403.2-64 512.8-64c247.2 0 448 200.8 448 448 0 110.4-40 211.2-106.4 289.6l58.4 58.4-45.6 45.6M704 256H545.6v-193.6h-64V256h-44l108 108V320H704v-64z m0 128H565.6l64 64H704v-64z"  horiz-adv-x="1024" />

    
    <glyph glyph-name="mianfei-xianxing" unicode="&#59586;" d="M137.6 140C91.2 210.4 64 294.4 64 384.8c0 247.2 200.8 448 448 448 90.4 0 174.4-27.2 245.6-73.6l-46.4-46.4c-58.4 35.2-126.4 56-198.4 56-212 0-384-172-384-384 0-72.8 20-140.8 56-198.4l-47.2-46.4zM320 448v-64h62.4l64 64H320z m56.8 192l-45.6-45.6L461.6 464l45.6 45.6L376.8 640z m490.4 138.4l45.6-45.6-58.4-58.4C920 596 960 495.2 960 384.8c0-247.2-200.8-448-448-448-110.4 0-211.2 40-289.6 106.4l-63.2-63.2-45.6 45.6M896 384.8c0 92.8-32.8 177.6-87.2 244L628.8 448H704v-64H564.8l-20-20V320H704v-64H544.8v-192h-64V256h-44l-168.8-167.2c66.4-54.4 151.2-87.2 244-87.2 212-0.8 384 172 384 383.2z"  horiz-adv-x="1024" />

    
    <glyph glyph-name="refund" unicode="&#59587;" d="M933.6 535.2c0-17.6-14.4-32-32-32-13.6 0-25.6 8.8-29.6 20.8C815.2 666.4 676 768 513.6 768c-212 0-384-172-384-384s172-384 384-384c80.8 0 156.8 25.6 218.4 68.8L674.4 128h159.2v-163.2l-56 56.8C704-32 612.8-64 513.6-64c-247.2 0-448 200.8-448 448s200.8 448 448 448c189.6 0 351.2-117.6 416.8-283.2 0.8-0.8 0.8-1.6 0.8-2.4 0-0.8 0.8-1.6 0.8-2.4 0.8-3.2 1.6-5.6 1.6-8.8zM704 384v64H548l145.6 145.6-45.6 45.6-136-136-136 136-45.6-45.6L477.6 448H320v-64h160v-64H320v-64h160v-192h64V256h160v64H544v64h160z"  horiz-adv-x="1024" />

    
    <glyph glyph-name="setting-o" unicode="&#59593;" d="M588.8 768l12-83.2 4.8-34.4 31.2-14.4c12.8-6.4 26.4-13.6 38.4-21.6l28-18.4 31.2 12 81.6 32 76-127.2-67.2-51.2-28-21.6 3.2-35.2c0.8-7.2 0.8-14.4 0.8-20.8s0-13.6-0.8-20.8l-3.2-35.2 28-21.6 67.2-51.2-75.2-127.2-82.4 32-31.2 12-28-18.4c-12.8-8.8-25.6-16-38.4-21.6l-31.2-14.4-4.8-33.6-12-84H435.2l-12 83.2-4.8 34.4-31.2 14.4c-12.8 6.4-26.4 13.6-38.4 21.6l-28 18.4-31.2-12L208 128l-76 127.2 67.2 51.2 28 21.6-3.2 35.2c-0.8 7.2-0.8 14.4-0.8 20.8s0 13.6 0.8 20.8l3.2 35.2-28 21.6-67.2 51.2L207.2 640l82.4-32 31.2-12 28 18.4c12.8 8.8 25.6 16 38.4 21.6l31.2 14.4 4.8 33.6L435.2 768h153.6m8.8 64H426.4c-27.2 0-49.6-19.2-53.6-44.8L360 694.4c-16-7.2-31.2-16-47.2-26.4l-90.4 35.2c-6.4 2.4-12.8 3.2-19.2 3.2-19.2 0-37.6-9.6-46.4-26.4L71.2 536c-13.6-22.4-8-52 12.8-68l76-57.6c-0.8-9.6-1.6-18.4-1.6-26.4s0-16.8 1.6-26.4l-76-57.6c-20.8-16-26.4-44-12.8-68l84.8-143.2c9.6-16.8 28-27.2 47.2-27.2 6.4 0 12 0.8 18.4 3.2L312 100c15.2-10.4 31.2-19.2 47.2-26.4l13.6-92c3.2-25.6 26.4-45.6 53.6-45.6h171.2c27.2 0 49.6 19.2 53.6 44.8l13.6 92.8c16 7.2 31.2 16 47.2 26.4l90.4-35.2c6.4-2.4 12.8-3.2 19.2-3.2 19.2 0 37.6 9.6 46.4 26.4l85.6 144.8c12.8 23.2 7.2 51.2-13.6 67.2l-76 57.6c0.8 8 1.6 16.8 1.6 26.4 0 9.6-0.8 18.4-1.6 26.4l76 57.6c20.8 16 26.4 44 12.8 68l-84.8 143.2c-9.6 16.8-28 27.2-47.2 27.2-6.4 0-12-0.8-18.4-3.2L712 668c-15.2 10.4-31.2 19.2-47.2 26.4l-13.6 92c-4 26.4-26.4 45.6-53.6 45.6zM512 512c70.4 0 128-57.6 128-128s-57.6-128-128-128-128 57.6-128 128 57.6 128 128 128m0 64c-105.6 0-192-86.4-192-192s86.4-192 192-192 192 86.4 192 192-86.4 192-192 192z"  horiz-adv-x="1024" />

    
    <glyph glyph-name="setting" unicode="&#59594;" d="M940 300l-76 57.6c0.8 8 1.6 16.8 1.6 26.4s-0.8 18.4-1.6 26.4l76 57.6c20.8 16 26.4 44 12.8 68l-84.8 143.2c-9.6 16.8-28 27.2-47.2 27.2-6.4 0-12-0.8-18.4-3.2L712 668c-15.2 10.4-31.2 19.2-47.2 26.4l-13.6 92c-4 26.4-26.4 45.6-53.6 45.6H426.4c-27.2 0-49.6-19.2-53.6-44.8L360 694.4c-16-7.2-31.2-16-47.2-26.4l-90.4 35.2c-6.4 2.4-12.8 3.2-19.2 3.2-19.2 0-37.6-9.6-46.4-26.4L71.2 536c-13.6-22.4-8-52 12.8-68l76-57.6c-0.8-9.6-1.6-18.4-1.6-26.4s0-16.8 1.6-26.4l-76-57.6c-20.8-16-26.4-44-12.8-68l84.8-143.2c9.6-16.8 28-27.2 47.2-27.2 6.4 0 12 0.8 18.4 3.2L312 100c15.2-10.4 31.2-19.2 47.2-26.4l13.6-92c3.2-25.6 26.4-45.6 53.6-45.6h171.2c27.2 0 49.6 19.2 53.6 44.8l13.6 92.8c16 7.2 31.2 16 47.2 26.4l90.4-35.2c6.4-2.4 12.8-3.2 19.2-3.2 19.2 0 37.6 9.6 46.4 26.4l85.6 144.8c12.8 23.2 7.2 51.2-13.6 67.2zM704 384c0-105.6-86.4-192-192-192S320 278.4 320 384s86.4 192 192 192 192-86.4 192-192z"  horiz-adv-x="1024" />

    
    <glyph glyph-name="mail-o" unicode="&#59597;" d="M928 704H96c-17.6 0-32-14.4-32-32v-576c0-17.6 14.4-32 32-32h832c17.6 0 32 14.4 32 32V672c0 17.6-14.4 32-32 32z m-32-576H128V576l384-192 384 192v-448zM512 448L128 640h768L512 448z"  horiz-adv-x="1024" />

    
    <glyph glyph-name="mail" unicode="&#59598;" d="M928 704H96c-17.6 0-32-14.4-32-32v-576c0-17.6 14.4-32 32-32h832c17.6 0 32 14.4 32 32V672c0 17.6-14.4 32-32 32z m-32-128L512 384 128 576v64l384-192 384 192v-64z"  horiz-adv-x="1024" />

    
    <glyph glyph-name="time-o" unicode="&#59601;" d="M512 832C264.8 832 64 631.2 64 384s200.8-448 448-448 448 200.8 448 448S759.2 832 512 832z m0-832c-212 0-384 172-384 384s172 384 384 384 384-172 384-384-172-384-384-384z m32 393.6l191.2-110.4-32-55.2L488.8 352H480V640h64v-246.4z"  horiz-adv-x="1024" />

    
    <glyph glyph-name="sound" unicode="&#59602;" d="M160 256h-64V512h64v-256z m768 256h-64v-256h64V512z m-576 64h-64v-384h64V576z m384 0h-64v-384h64V576zM544 704h-64v-640h64V704z"  horiz-adv-x="1024" />

    
    <glyph glyph-name="time" unicode="&#59603;" d="M512 832C264.8 832 64 631.2 64 384s200.8-448 448-448 448 200.8 448 448S759.2 832 512 832z m191.2-604L488.8 352H480V640h64v-246.4l191.2-110.4-32-55.2z"  horiz-adv-x="1024" />

    
    <glyph glyph-name="upload" unicode="&#59604;" d="M512 768l184-192H544v-448h-64V576H328l184 192z m384-384h-64v-320H192V384h-64v-384h768V384z"  horiz-adv-x="1024" />

    
    <glyph glyph-name="download" unicode="&#59605;" d="M328 320h152V768h64v-448h152L512 128 328 320z m568 64h-64v-320H192V384h-64v-384h768V384z"  horiz-adv-x="1024" />

    
    <glyph glyph-name="user-o" unicode="&#59636;" d="M512 703.2c70.4 0 128-57.6 128-128s-57.6-128-128-128c-36 0-68.8 14.4-93.6 40.8-24.8 26.4-36.8 60-34.4 96 4 63.2 56.8 115.2 120 118.4 2.4 0.8 4.8 0.8 8 0.8M512 256c53.6 0 140.8-13.6 216-43.2 64-25.6 104-57.6 104-84v-64.8H192v64.8c0 26.4 40 58.4 104 84 75.2 29.6 162.4 43.2 216 43.2m0 511.2h-11.2c-96-5.6-174.4-83.2-180.8-178.4-7.2-112 80.8-204.8 191.2-204.8 105.6 0 192 86.4 192 192S617.6 767.2 512 767.2zM512 320c-128 0-384-64-384-191.2v-96c0-17.6 14.4-32 32-32h704c17.6 0 32 14.4 32 32V129.60000000000002C896 256 640 320 512 320z"  horiz-adv-x="1024" />

    
    <glyph glyph-name="user" unicode="&#59637;" d="M500 767.2c-95.2-5.6-173.6-83.2-180-178.4-7.2-112 80.8-205.6 191.2-205.6 106.4 0 192 86.4 192 192 0.8 110.4-92 198.4-203.2 192zM512 320.79999999999995c-128 0-383.2-64-383.2-192v-96c0-17.6 14.4-32 32-32h702.4c17.6 0 32 14.4 32 32V129.60000000000002c0 127.2-255.2 191.2-383.2 191.2z"  horiz-adv-x="1024" />

    
    <glyph glyph-name="group" unicode="&#59638;" d="M663.2 448.8c84-10.4 153.6 60.8 142.4 144-7.2 57.6-52.8 103.2-109.6 110.4-84 10.4-154.4-60-143.2-144 7.2-57.6 53.6-103.2 110.4-110.4z m-326.4 0c84-10.4 153.6 60.8 142.4 144-7.2 57.6-53.6 103.2-110.4 110.4-84 10.4-154.4-60-143.2-144 8-57.6 53.6-103.2 111.2-110.4z m11.2-64.8C253.6 384 64 335.20000000000005 64 238.39999999999998V80c0-8.8 7.2-16 16-16h536c8.8 0 16 7.2 16 16V238.39999999999998C632 335.20000000000005 442.4 384 348 384z m322.4 0c-12 0-25.6-0.8-40-2.4 48-34.4 81.6-81.6 81.6-143.2V80c0-8.8 7.2-16 16-16h216c8.8 0 16 7.2 16 16V238.39999999999998C960 335.20000000000005 767.2 384 670.4 384z"  horiz-adv-x="1024" />

    
    <glyph glyph-name="avatar" unicode="&#59639;" d="M512 832C264.8 832 64 631.2 64 384s200.8-448 448-448 448 200.8 448 448S759.2 832 512 832zM384.8 520c4 64 56 115.2 120 119.2 74.4 4 135.2-55.2 135.2-128 0-70.4-57.6-128-128-128-73.6 0-132 62.4-127.2 136.8zM768 149.60000000000002c0-12-9.6-21.6-21.6-21.6H278.4c-12 0-21.6 9.6-21.6 21.6v64c0 84.8 170.4 128 255.2 128 84.8 0 255.2-42.4 255.2-128l0.8-64z"  horiz-adv-x="1024" />

    
    <glyph glyph-name="user-add" unicode="&#59640;" d="M320 588.8c6.4 95.2 84.8 172.8 180 178.4 111.2 6.4 204-81.6 204-192 0-105.6-85.6-192-192-192-110.4 0-199.2 93.6-192 205.6zM575.2 128c0 72.8 40.8 136.8 100.8 168.8C616 312 556 320 511.2 320 384 320 128 256 128 128v-96c0-17.6 14.4-32 32-32h464c-30.4 33.6-48.8 78.4-48.8 128z m320.8 32h-96V256h-64v-96H640v-64h96v-96h64v96h96v64z"  horiz-adv-x="1024" />

    
    <glyph glyph-name="tasks" unicode="&#59641;" d="M128 736v-192h768V736H128z m704-128H512v64h320v-64zM128 224v-192h768V224H128z m704-128H576v64h256v-64zM128 480v-192h768V480H128z m704-128H384v64h448v-64z"  horiz-adv-x="1024" />

    
    <glyph glyph-name="lang-zh" unicode="&#59606;" d="M544 480h160v-128H544V480z m352 256v-704c0-17.6-14.4-32-32-32H160c-17.6 0-32 14.4-32 32V736c0 17.6 14.4 32 32 32h704c17.6 0 32-14.4 32-32zM768 544H544V640h-64v-96H256v-256h224v-160h64V288h224V544zM320 352h160V480H320v-128z"  horiz-adv-x="1024" />

    
    <glyph glyph-name="attachment" unicode="&#59646;" d="M960 448c0-88-72-160-160-160H352c-52.8 0-96 43.2-96 96s43.2 96 96 96h416v-64H352c-17.6 0-32-14.4-32-32s14.4-32 32-32h448c52.8 0 96 43.2 96 96s-43.2 96-96 96H288c-88 0-160-72-160-160s72-160 160-160h352v-64H288C164 160 64 260 64 384s100 224 224 224h512c88 0 160-72 160-160z"  horiz-adv-x="1024" />

    
    <glyph glyph-name="lang-en" unicode="&#59607;" d="M864 768H160c-17.6 0-32-14.4-32-32v-704c0-17.6 14.4-32 32-32h704c17.6 0 32 14.4 32 32V736c0 17.6-14.4 32-32 32zM480 576H288v-160h192v-64H288v-160h192v-64H224V640h256v-64z m320-224v-224h-64V352H608v-224h-64V416h256v-64z"  horiz-adv-x="1024" />

    
    <glyph glyph-name="duty-off" unicode="&#59610;" d="M864 704H704v64h-64v-64H384v64h-64v-64H160c-17.6 0-32-14.4-32-32v-640c0-17.6 14.4-32 32-32h704c17.6 0 32 14.4 32 32V672c0 17.6-14.4 32-32 32z m-32-640H192V512h640v-448zM347.2 172.79999999999995L464 290.4 355.2 399.2l45.6 45.6L509.6 336l108.8 108.8 45.6-45.6-109.6-108.8L672 172.79999999999995 626.4 128 509.6 244.79999999999995 392 128l-44.8 44.8z"  horiz-adv-x="1024" />

    
    <glyph glyph-name="duty-on" unicode="&#59611;" d="M864 704H704v64h-64v-64H384v64h-64v-64H160c-17.6 0-32-14.4-32-32v-640c0-17.6 14.4-32 32-32h704c17.6 0 32 14.4 32 32V672c0 17.6-14.4 32-32 32z m-32-640H192V512h640v-448zM403.2 188.79999999999995L320.8 271.20000000000005l45.6 45.6L448 234.39999999999998l210.4 210.4 45.6-45.6-210.4-210.4L448 144l-44.8 44.8z"  horiz-adv-x="1024" />

    
    <glyph glyph-name="image-o" unicode="&#59614;" d="M928 704H96c-17.6 0-32-14.4-32-32v-576c0-17.6 14.4-32 32-32h832c17.6 0 32 14.4 32 32V672c0 17.6-14.4 32-32 32z m-32-576H128V640h768v-512zM447.2 416L520 288.79999999999995l128 221.6L832 192H317.6l129.6 224zM192 480c0 52.8 43.2 96 96 96s96-43.2 96-96-43.2-96-96-96-96 43.2-96 96z"  horiz-adv-x="1024" />

    
    <glyph glyph-name="image" unicode="&#59615;" d="M928 704H96c-17.6 0-32-14.4-32-32v-576c0-17.6 14.4-32 32-32h832c17.6 0 32 14.4 32 32V672c0 17.6-14.4 32-32 32zM192 480c0 52.8 43.2 96 96 96s96-43.2 96-96-43.2-96-96-96-96 43.2-96 96z m384-288H317.6l128.8 224L520 288.79999999999995l128 221.6L832 192H576z"  horiz-adv-x="1024" />

    
    <glyph glyph-name="scan" unicode="&#59616;" d="M128 512V736c0 17.6 14.4 32 32 32h224v-64H192v-192h-64z m512 192h192v-192h64V736c0 17.6-14.4 32-32 32H640v-64z m192-448v-192H640v-64h224c17.6 0 32 14.4 32 32V256h-64z m-448-192H192V256h-64v-224c0-17.6 14.4-32 32-32h224v64z m512 352H128v-64h768v64z"  horiz-adv-x="1024" />

    
    <glyph glyph-name="visible" unicode="&#59617;" d="M512 640c-168 0-329.6-106.4-384-256 54.4-149.6 216-256 384-256 167.2 0 330.4 106.4 384.8 256-55.2 149.6-217.6 256-384.8 256z m0-416c-88 0-160 72-160 160s72 160 160 160 160-72 160-160-72-160-160-160z m96 160c0-52.8-43.2-96-96-96s-96 43.2-96 96 43.2 96 96 96 96-43.2 96-96z"  horiz-adv-x="1024" />

    
    <glyph glyph-name="lock" unicode="&#59618;" d="M800 448H704V576c0 106.4-85.6 192-192 192S320 682.4 320 576v-128H224c-17.6 0-32-14.4-32-32v-384c0-17.6 14.4-32 32-32h576c17.6 0 32 14.4 32 32V416c0 17.6-14.4 32-32 32zM512 160c-35.2 0-64 28.8-64 64s28.8 64 64 64 64-28.8 64-64-28.8-64-64-64z m128 288H384V576c0 70.4 57.6 128 128 128s128-57.6 128-128v-128z"  horiz-adv-x="1024" />

    
    <glyph glyph-name="invisible" unicode="&#59619;" d="M253.6 216.79999999999995l109.6 109.6C356 344 352 363.20000000000005 352 384c0 88 72 160 160 160 20.8 0 40-4 57.6-11.2l82.4 82.4C607.2 631.2 560 640 512 640c-168 0-329.6-106.4-384-256 24-65.6 68.8-123.2 125.6-167.2zM416 384v-4.8L516.8 480H512c-52.8 0-96-43.2-96-96zM770.4 551.2l163.2 163.2L888 760l-753.6-753.6 45.6-45.6 192.8 192.8A390.4 390.4 0 0 1 512 128c167.2 0 330.4 106.4 384.8 256-24 65.6-69.6 123.2-126.4 167.2zM512 224c-20 0-40 4-57.6 11.2l53.6 53.6h4.8c52.8 0 96 43.2 96 96v4.8l53.6 53.6C668 424 672 404 672 384c0-88-72-160-160-160z"  horiz-adv-x="1024" />

    
    <glyph glyph-name="unlock" unicode="&#59620;" d="M800 448H704V576c0 106.4-85.6 192-192 192S320 682.4 320 576h64c0 70.4 57.6 128 128 128s128-57.6 128-128v-128H224c-17.6 0-32-14.4-32-32v-384c0-17.6 14.4-32 32-32h576c17.6 0 32 14.4 32 32V416c0 17.6-14.4 32-32 32zM512 160c-35.2 0-64 28.8-64 64s28.8 64 64 64 64-28.8 64-64-28.8-64-64-64z"  horiz-adv-x="1024" />

    
    <glyph glyph-name="install-o" unicode="&#59621;" d="M512 832C264.8 832 64 631.2 64 384s200.8-448 448-448 448 200.8 448 448S759.2 832 512 832zM128 384c0 212 172 384 384 384s384-172 384-384c0-83.2-26.4-159.2-71.2-222.4L620.8 365.6c34.4 71.2 21.6 159.2-37.6 218.4-52.8 52.8-128 68-193.6 47.2-2.4-12-3.2-15.2-5.6-27.2l64-60v-56l-40-40h-56l-60 64c-12-2.4-15.2-3.2-27.2-5.6C244 440 260 364.79999999999995 312 312c59.2-59.2 147.2-71.2 218.4-37.6l204-204c-62.4-44.8-139.2-71.2-222.4-71.2C300 0 128 172 128 384z"  horiz-adv-x="1024" />

    
    <glyph glyph-name="install" unicode="&#59622;" d="M530.4 275.20000000000005C459.2 240.79999999999995 371.2 252.79999999999995 312 312c-52.8 52.8-68 128-47.2 193.6 12 2.4 15.2 3.2 27.2 5.6l60-64h56l40 40v56l-64 60c2.4 12 3.2 15.2 5.6 27.2C456 652 531.2 636 584 584c59.2-59.2 71.2-147.2 37.6-218.4l249.6-249.6c56 74.4 88.8 168 88.8 268 0 247.2-200.8 448-448 448S64 631.2 64 384s200.8-448 448-448c100.8 0 193.6 32.8 268 88.8L530.4 275.20000000000005z"  horiz-adv-x="1024" />

    
    <glyph glyph-name="power-off" unicode="&#59623;" d="M512 832C264.8 832 64 631.2 64 384s200.8-448 448-448 448 200.8 448 448S759.2 832 512 832z m-32-128h64v-384h-64V704z m32-640c-176.8 0-320 143.2-320 320 0 131.2 79.2 244 192 293.6v-72C307.2 561.6 256 478.4 256 384c0-140.8 115.2-256 256-256s256 115.2 256 256c0 94.4-51.2 177.6-128 221.6v72c112.8-49.6 192-162.4 192-293.6 0-176.8-143.2-320-320-320z"  horiz-adv-x="1024" />

    
    <glyph glyph-name="list" unicode="&#59631;" d="M896 640H128V768h768v-128z m0-192H128v-128h768V448z m0-320H128v-128h768V128z"  horiz-adv-x="1024" />

    
    <glyph glyph-name="grid" unicode="&#59632;" d="M320 576H128V768h192v-192z m288 192H416v-192h192V768z m288 0H704v-192h192V768zM320 480H128v-192h192V480z m288 0H416v-192h192V480z m288 0H704v-192h192V480zM320 192H128v-192h192V192z m288 0H416v-192h192V192z m288 0H704v-192h192V192z"  horiz-adv-x="1024" />

    
    <glyph glyph-name="mobile-phone" unicode="&#59633;" d="M704 768v-768H320V768h384m0 64H320c-35.2 0-64-28.8-64-64v-768c0-35.2 28.8-64 64-64h384c35.2 0 64 28.8 64 64V768c0 35.2-28.8 64-64 64zM272 704v-64h480v64H272z m0-576h480v64H272v-64z m176-96h128v64H448v-64z"  horiz-adv-x="1024" />

    
    <glyph glyph-name="pc" unicode="&#59634;" d="M640 0H384v64h256v-64z m320 704v-512c0-35.2-28.8-64-64-64H128c-35.2 0-64 28.8-64 64V704c0 35.2 28.8 64 64 64h768c35.2 0 64-28.8 64-64zM128 704v-384h768V704H128z m768-512v64H128v-64h768z"  horiz-adv-x="1024" />

    
    <glyph glyph-name="pda" unicode="&#59635;" d="M736 832H288c-35.2 0-64-28.8-64-64v-128h-32v-128h32v-512c0-35.2 28.8-64 64-64h448c35.2 0 64 28.8 64 64V512h32V640h-32V768c0 35.2-28.8 64-64 64zM288 384V768h448v-384H288z m0-384V320h448v-320H288z m384 288h-64v-64h64v64z m-128 0h-64v-64h64v64z m-128 0h-64v-64h64v64z m256-96h-64v-64h64v64z m-128 0h-64v-64h64v64z m-128 0h-64v-64h64v64z m256-96h-64v-64h64v64z m-128 0h-64v-64h64v64z m-128 0h-64v-64h64v64z"  horiz-adv-x="1024" />

    
    <glyph glyph-name="locate" unicode="&#59648;" d="M960 416h-65.6C879.2 602.4 730.4 751.2 544 766.4V832h-64v-65.6C293.6 751.2 144.8 602.4 129.6 416H64v-64h65.6c15.2-186.4 164-335.2 350.4-350.4v-65.6h64v65.6c186.4 15.2 335.2 164 350.4 350.4h65.6v64z m-448-352c-176.8 0-320 143.2-320 320s143.2 320 320 320 320-143.2 320-320-143.2-320-320-320z m128 320c0-70.4-57.6-128-128-128s-128 57.6-128 128 57.6 128 128 128 128-57.6 128-128z"  horiz-adv-x="1024" />

    
    <glyph glyph-name="monitor-cam-o" unicode="&#59649;" d="M512 688c-132.8 0-240-107.2-240-240s107.2-240 240-240 240 107.2 240 240-107.2 240-240 240z m0-416c-96.8 0-176 79.2-176 176s79.2 176 176 176 176-79.2 176-176-79.2-176-176-176z m384 176c0 212-172 384-384 384S128 660 128 448c0-192.8 142.4-352.8 328-380l-4-68H256v-64h512v64H573.6l-4 68C754.4 96 896 255.20000000000005 896 448zM512 128c-176.8 0-320 143.2-320 320s143.2 320 320 320 320-143.2 320-320-143.2-320-320-320z m128 352c0-52.8-43.2-96-96-96s-96 43.2-96 96 43.2 96 96 96 96-43.2 96-96z"  horiz-adv-x="1024" />

    
    <glyph glyph-name="tracking" unicode="&#59650;" d="M392.8 86.39999999999998l53.6-53.6-61.6 10.4-219.2-36.8c-19.2-3.2-37.6 12-37.6 31.2V697.6c0 16 12 29.6 28 32L256 740.8c0-4-0.8-8.8-0.8-12.8 0-17.6 2.4-34.4 8-51.2l-56.8-4.8c-8-0.8-14.4-7.2-14.4-16v-562.4c0-9.6 8.8-17.6 18.4-16l163.2 27.2h0.8c6.4-5.6 12-12 18.4-18.4z m246.4 640l-45.6 15.2c0-4 0.8-8.8 0.8-12.8 0-17.6-2.4-34.4-8-51.2l42.4-14.4 10.4-1.6 10.4 1.6 163.2 27.2c9.6 1.6 18.4-5.6 18.4-16v-564c0-8-5.6-14.4-13.6-16l-79.2-13.6-78.4-78.4 208 35.2c15.2 2.4 26.4 16 26.4 31.2V731.2c0 20-17.6 35.2-37.6 31.2l-217.6-36zM424.8 577.6l75.2 74.4c19.2 19.2 30.4 44.8 30.4 74.4C530.4 784.8 483.2 832 424.8 832S320 784.8 320 726.4c0-28.8 12-55.2 30.4-74.4l74.4-74.4z m0 190.4c17.6 0 32-14.4 32-32s-14.4-32-32-32-32 14.4-32 32 14.4 32 32 32z m176-480c0-17.6-14.4-32-32-32s-32 14.4-32 32 14.4 32 32 32 32-14.4 32-32z m150.4-24c0-50.4-20-99.2-52.8-132.8L568 4.7999999999999545 436.8 131.20000000000005C404 164.79999999999995 384 213.60000000000002 384 264c0 101.6 82.4 183.2 183.2 183.2s184-81.6 184-183.2z m-64 0c0 65.6-53.6 119.2-119.2 119.2S448 329.6 448 264c0-31.2 12-64.8 34.4-87.2L567.2 96l84.8 80.8c23.2 22.4 35.2 56 35.2 87.2z"  horiz-adv-x="1024" />

    
    <glyph glyph-name="monitor-cam" unicode="&#59651;" d="M896 448c0 212-172 384-384 384S128 660 128 448c0-192.8 142.4-352.8 328-380l-4-68H256v-64h512v64H573.6l-4 68C754.4 96 896 255.20000000000005 896 448zM512 128c-176.8 0-320 143.2-320 320s143.2 320 320 320 320-143.2 320-320-143.2-320-320-320z m0 560c-132.8 0-240-107.2-240-240s107.2-240 240-240 240 107.2 240 240-107.2 240-240 240zM416 384c-52.8 0-96 43.2-96 96s43.2 96 96 96 96-43.2 96-96-43.2-96-96-96z"  horiz-adv-x="1024" />

    
    <glyph glyph-name="radar" unicode="&#59652;" d="M512 832C264.8 832 64 631.2 64 384s200.8-448 448-448 448 200.8 448 448S759.2 832 512 832z m-16-831.2c-199.2 8-359.2 168.8-367.2 367.2h128C264.8 239.20000000000005 368 136.79999999999995 496 128.79999999999995v-128z m0 192c-92.8 8-167.2 82.4-175.2 175.2h129.6c5.6-22.4 23.2-40 45.6-45.6v-129.6z m0 252.8c-22.4-5.6-39.2-23.2-45.6-45.6H320.8c8 92.8 82.4 167.2 175.2 175.2v-129.6z m0 193.6C367.2 631.2 264.8 528 256.8 400h-128c8 199.2 168.8 359.2 367.2 367.2v-128z m32-64c17.6-1.6 34.4-5.6 49.6-11.2 4.8 22.4 17.6 41.6 35.2 55.2-26.4 11.2-55.2 18.4-84.8 20.8V768c92-4 176-40 240-97.6L722.4 624c8.8-5.6 17.6-12.8 24-21.6l44.8 44.8c61.6-64.8 100.8-152 104.8-247.2H768c-1.6 29.6-8.8 58.4-20 84.8-13.6-17.6-32.8-30.4-55.2-35.2 5.6-16 9.6-32 11.2-49.6H574.4c-2.4 8-5.6 14.4-10.4 20.8l47.2 47.2c-8 6.4-15.2 15.2-21.6 24l-50.4-50.4c-4 1.6-7.2 3.2-12 4V575.2z m0-253.6c22.4 5.6 40.8 23.2 46.4 46.4h128.8c-8-92.8-82.4-167.2-175.2-175.2V321.6z m0-320.8v128C656.8 136.79999999999995 759.2 240 767.2 368h128c-8-199.2-168-359.2-367.2-367.2z m143.2 478.4c-35.2 0-64 28.8-64 64s28.8 64 64 64 64-28.8 64-64-28.8-64-64-64z"  horiz-adv-x="1024" />

    
    <glyph glyph-name="report" unicode="&#59653;" d="M960 224V736c0 17.6-14.4 32-32 32H544V832h-64v-64H96c-17.6 0-32-14.4-32-32v-512c0-17.6 14.4-32 32-32h384v-50.4l-152.8-89.6 32-56 144 84h19.2l144-84 32 56L544 141.60000000000002V192h384c17.6 0 32 14.4 32 32zM790.4 640l41.6-48.8-316.8-270.4L352 458.4 233.6 359.20000000000005 192.8 408l160 133.6 163.2-137.6L790.4 640z"  horiz-adv-x="1024" />

    
    <glyph glyph-name="report-o" unicode="&#59654;" d="M928 768H544V832h-64v-64H96c-17.6 0-32-14.4-32-32v-512c0-17.6 14.4-32 32-32h384v-50.4l-152.8-89.6 32-56 144 84h19.2l144-84 32 56L544 141.60000000000002V192h384c17.6 0 32 14.4 32 32V736c0 17.6-14.4 32-32 32z m-32-512H128V704h768v-448zM790.4 640l41.6-48-316.8-271.2L352 458.4 233.6 359.20000000000005 192.8 408l160 133.6 163.2-137.6L790.4 640z"  horiz-adv-x="1024" />

    
    <glyph glyph-name="map" unicode="&#59656;" d="M357.6 64l-255.2-56c-20-4.8-39.2 10.4-39.2 31.2V326.4c0 15.2 10.4 28 24.8 31.2L243.2 392l53.6-53.6L139.2 304c-7.2-1.6-12.8-8-12.8-16v-188c0-10.4 9.6-17.6 19.2-16l192.8 42.4 12.8 3.2 12.8-2.4 306.4-60.8 210.4 47.2c7.2 1.6 12.8 8 12.8 16V316c0 10.4-9.6 17.6-19.2 16L688 289.6l-12-2.4L760 371.20000000000005l160.8 36c20 4.8 39.2-10.4 39.2-31.2v-286.4c0-15.2-10.4-28-24.8-31.2L672.8 0M512 768c-115.2 0-206.4-101.6-190.4-220 5.6-41.6 26.4-80 56-109.6l0.8-0.8L512 304.79999999999995l133.6 132.8 0.8 0.8c29.6 29.6 49.6 68 56 109.6C719.2 666.4 627.2 768 512 768m0 64c141.6 0 256-114.4 256-256 0-70.4-28-133.6-74.4-180L512 214.39999999999998 330.4 396C284.8 442.4 256 505.6 256 576 256 717.6 371.2 832 512 832z m64.8-193.6c0 35.2-28.8 64-64 64s-64-28.8-64-64 28.8-64 64-64 64 28 64 64z"  horiz-adv-x="1024" />

    
    <glyph glyph-name="complain" unicode="&#59657;" d="M863.2 768H160.8c-17.6 0-32-14.4-32-32v-704c0-17.6 14.4-32 32-32H864c17.6 0 32 14.4 32 32V736c-0.8 17.6-15.2 32-32.8 32zM333.6 639.2c26.4-30.4 51.2-60.8 72-92.8l-48.8-32c-2.4 4-7.2 10.4-12.8 17.6-24 32.8-43.2 59.2-57.6 77.6l47.2 29.6zM352 196.79999999999995c-4-3.2-10.4-9.6-19.2-19.2-3.2-4-4.8-7.2-6.4-8.8l-36 40.8c12.8 16 18.4 32.8 16.8 52v160H256v53.6h106.4v-189.6l48.8 47.2c1.6-4 2.4-12 4-21.6 3.2-18.4 5.6-32 8.8-40.8-26.4-23.2-50.4-48-72-73.6z m402.4 30.4l-78.4 28v-128h-57.6V274.4L528 307.20000000000005l21.6 49.6 70.4-24v88H512.8V408c0-68.8-4.8-122.4-14.4-160-8.8-38.4-26.4-79.2-52.8-120.8-3.2 3.2-8.8 8-16.8 15.2-14.4 12.8-24 21.6-29.6 25.6 24 32 40 63.2 46.4 95.2 7.2 31.2 10.4 80 10.4 144.8V602.4c117.6 7.2 212 16.8 284 28l21.6-53.6c-95.2-11.2-177.6-19.2-248-24v-77.6H768v-53.6H676v-108L776 279.20000000000005l-21.6-52z"  horiz-adv-x="1024" />

    
    <glyph glyph-name="inspect" unicode="&#59655;" d="M724.8 448H490.4c46.4 37.6 84 78.4 113.6 121.6 29.6-43.2 70.4-84 120.8-121.6zM896 736v-704c0-17.6-14.4-32-32-32H160c-17.6 0-32 14.4-32 32V736c0 17.6 14.4 32 32 32h704c17.6 0 32-14.4 32-32zM768 176h-72.8c10.4 27.2 24.8 70.4 40.8 121.6 8.8 25.6 16 45.6 20 59.2l-53.6 13.6c-3.2-8-6.4-20.8-11.2-39.2-19.2-68.8-36-122.4-48-156H416v-48h352V176z m-277.6 21.6l51.2 13.6c-13.6 50.4-28 98.4-44.8 143.2L448 343.20000000000005c14.4-48 28.8-96 42.4-145.6z m102.4 24.8l48.8 8.8c-8.8 46.4-19.2 92-31.2 136l-51.2-8.8c15.2-52 26.4-97.6 33.6-136z m198.4 250.4c-61.6 32.8-116.8 79.2-162.4 140.8L640 640h-66.4c-33.6-69.6-76.8-121.6-142.4-164V528h-56V640h-56v-112h-64v-48H320c-17.6-60-42.4-116-73.6-168.8 5.6-31.2 10.4-57.6 13.6-79.2 26.4 43.2 47.2 87.2 60 130.4V128h55.2l0.8 225.6 42.4-42.4 28.8 49.6c-25.6 20.8-48.8 40.8-71.2 58.4V480h52.8c-5.6-4.8-12.8-8-20-11.2 10.4-17.6 20-35.2 28.8-53.6 3.2 1.6 6.4 4 11.2 6.4 13.6 10.4 24 18.4 31.2 24.8V400h240v46.4c1.6-1.6 3.2-2.4 6.4-4 16-12 29.6-20 40-24.8 7.2 17.6 16 37.6 24.8 55.2z"  horiz-adv-x="1024" />

    
    <glyph glyph-name="courier" unicode="&#59663;" d="M895.2 128.79999999999995V32c0-17.6-14.4-32-32-32h-160V176c0 8.8-7.2 16-16 16h-352c-8.8 0-16-7.2-16-16v-176H160.8c-17.6 0-32 14.4-32 32V128c0 128 256 192 383.2 192s383.2-64 383.2-191.2z m-384-128.8h128v32h-128v-32z m64 64h64v32h-64v-32z m-288 544c0-124 100-224 224-224s224 100 224 224-100 224-224 224c-101.6 0-187.2-67.2-214.4-160H191.2v-32h98.4c-1.6-10.4-2.4-20.8-2.4-32z"  horiz-adv-x="1024" />

    
    <glyph glyph-name="courier-o" unicode="&#59664;" d="M512.8 320c-128 0-383.2-64-383.2-192v-96c0-17.6 14.4-32 32-32h191.2V160h320v-160h192c17.6 0 32 14.4 32 32V128.79999999999995C896 256 640.8 320 512.8 320z m319.2-256H704V176c0 8.8-7.2 16-16 16H336c-8.8 0-16-7.2-16-16v-112H192.8v64.8c0 26.4 40 58.4 103.2 84 75.2 29.6 162.4 43.2 216 43.2 53.6 0 140.8-13.6 216-43.2 64-25.6 103.2-57.6 103.2-84l0.8-64.8z m-256 32h64v-32h-64v32z m-64-64h128v-32H512v32zM512 832c-101.6 0-187.2-67.2-214.4-160H192v-32h98.4c-1.6-10.4-2.4-20.8-2.4-32 0-124 100-224 224-224s224 100 224 224S636 832 512 832z m0-64c63.2 0 116.8-36.8 143.2-89.6C622.4 691.2 574.4 704 512 704c-60 0-108-11.2-142.4-23.2C396 732 449.6 768 512 768z m0-320c-88 0-160 72-160 160 0 11.2 0.8 21.6 3.2 32 30.4 13.6 84 32 156.8 32 78.4 0 132-21.6 156.8-34.4 1.6-9.6 3.2-19.2 3.2-29.6 0-88-72-160-160-160z"  horiz-adv-x="1024" />

    
    </font>
</defs>
</svg>
